<?xml version="1.0" encoding="utf-8"?>
<!-- Generator: Adobe Illustrator 23.0.3, SVG Export Plug-In . SVG Version: 6.00 Build 0)  -->
<svg version="1.1" id="Capa_1" xmlns="http://www.w3.org/2000/svg" xmlns:xlink="http://www.w3.org/1999/xlink" x="0px" y="0px"
	 viewBox="0 0 512 328" style="enable-background:new 0 0 512 328;" xml:space="preserve">
<style type="text/css">
	.st0{fill:#959595;}
</style>
<path class="st0" d="M477.2,32.7h-139h-74.6h-15.2v0H94.3c-4.2,0-7.6,3.4-7.6,7.6s3.4,7.6,7.6,7.6h382.9c10.8,0,19.6,8.8,19.6,19.6
	v15.1H15.2V67.5c0-10.8,8.8-19.6,19.6-19.6h24c4.2,0,7.6-3.4,7.6-7.6s-3.4-7.6-7.6-7.6h-24C15.6,32.7,0,48.3,0,67.5v195
	c0,19.2,15.6,34.8,34.8,34.8h442.4c19.2,0,34.8-15.6,34.8-34.8v-22.7v-49.9V140V90.1V67.4C512,48.3,496.4,32.7,477.2,32.7z
	 M452.4,97.8h44.4v34.7h-44.4V97.8z M457.4,147.6v34.7H413v-34.7H457.4z M392.8,97.8h44.4v34.7h-44.4V97.8z M397.8,147.6v34.7h-44.4
	v-34.7H397.8z M333.2,97.8h44.4v34.7h-44.4V97.8z M338.2,147.7v34.7h-44.4v-34.7H338.2z M273.6,97.8H318v34.7h-44.4V97.8z
	 M214,197.5h44.4v34.7H214V197.5z M174.6,182.4v-34.7H219v34.7H174.6z M234.2,182.3v-34.7h44.4v34.7H234.2z M214,97.8h44.4v34.7H214
	V97.8z M154.4,97.8h44.4v34.7h-44.4V97.8z M159.4,147.7v34.7H115v-34.7H159.4z M94.8,97.8h44.4v34.7H94.8V97.8z M99.8,147.7v34.7
	H55.4v-34.7H99.8z M15.2,97.8h64.4v34.7H15.2V97.8z M15.2,147.6h25v34.7h-25V147.6z M33.4,282c-10.1-0.7-18.2-9.2-18.2-19.5v-15.1
	h18.2V282z M15.2,232.2v-34.7h64.4v34.7H15.2z M93,282.1H48.7v-34.7H93V282.1z M94.8,197.5h44.4v34.7H94.8V197.5z M152.6,282.1
	h-44.4v-34.7h44.4V282.1z M154.4,197.5h44.4v34.7h-44.4V197.5z M327.5,282.1H167.8v-34.7h111c4.2,0,7.6-3.4,7.6-7.6
	s-3.4-7.6-7.6-7.6h-5.2v-34.7H318v34.7h-3.7c-4.2,0-7.6,3.4-7.6,7.6s3.4,7.6,7.6,7.6h13.2V282.1z M333.2,197.5h44.4v34.7h-44.4
	V197.5z M387.1,282.1h-44.4v-34.7h44.4V282.1z M392.8,197.5h44.4v34.7h-44.4V197.5z M446.7,282.1h-44.4v-34.7h44.4V282.1z
	 M496.8,262.5c0,10.8-8.8,19.6-19.6,19.6h-15.3v-34.7h34.9V262.5z M496.8,189.9l0,42.3h-44.4v-34.7H465c4.2,0,7.6-3.4,7.6-7.6v-42.3
	h24.2V189.9z"/>
</svg>
