<?xml version="1.0" encoding="utf-8"?>
<!-- Generator: Adobe Illustrator 23.0.3, SVG Export Plug-In . SVG Version: 6.00 Build 0)  -->
<svg version="1.1" id="Capa_1" xmlns="http://www.w3.org/2000/svg" xmlns:xlink="http://www.w3.org/1999/xlink" x="0px" y="0px"
	 viewBox="0 0 512 512" style="enable-background:new 0 0 512 512;" xml:space="preserve">
<style type="text/css">
	.st0{fill:#F2F2F2;}
	.st1{fill:#959595;}
</style>
<path class="st0" d="M477.2,196.5H34.8c-15,0-27.2,12.2-27.2,27.2v195c0,15,12.2,27.2,27.2,27.2h442.4c15,0,27.2-12.2,27.2-27.2
	v-195C504.4,208.7,492.2,196.5,477.2,196.5z"/>
<path class="st1" d="M477.2,188.9H263.6v-19.7c0-23.9-19.6-42.6-43.4-42.7c-15.4-0.1-28-12.7-28-28.1v-32c0-4.2-3.2-7.8-7.4-7.9
	c-4.3-0.1-7.8,3.3-7.8,7.6v33c0,23.9,19.5,42.6,43.4,42.7c15.4,0.1,28,12.7,28,28.1v19H94.3c-4.2,0-7.6,3.4-7.6,7.6l0,0
	c0,4.2,3.4,7.6,7.6,7.6h382.9c10.8,0,19.6,8.8,19.6,19.6v15.1H15.2v-15.1c0-10.8,8.8-19.6,19.6-19.6h24c4.2,0,7.6-3.4,7.6-7.6l0,0
	c0-4.2-3.4-7.6-7.6-7.6h-24C15.6,188.9,0,204.5,0,223.7v195c0,19.2,15.6,34.8,34.8,34.8h442.4c19.2,0,34.8-15.6,34.8-34.8V396v-49.9
	v-49.9v-49.9v-22.7C512,204.5,496.4,188.9,477.2,188.9z M496.8,288.7h-44.4V254h44.4V288.7z M392.8,288.7V254h44.4v34.7H392.8z
	 M353.4,338.5v-34.7h44.4v34.7H353.4z M333.2,388.4v-34.7h44.4v34.7H333.2z M214,388.4v-34.7h44.4v34.7H214z M94.8,388.4v-34.7h44.4
	v34.7H94.8z M159.4,303.9v34.7H115v-34.7H159.4z M219,303.9v34.7h-44.4v-34.7H219z M154.4,388.4v-34.7h44.4v34.7H154.4z
	 M234.2,338.5v-34.7h44.4v34.7H234.2z M293.8,303.9h44.4v34.7h-44.4V303.9z M377.6,288.7h-44.4V254h44.4L377.6,288.7L377.6,288.7z
	 M318,288.7h-44.4V254H318V288.7L318,288.7z M258.4,288.7H214V254h44.4V288.7z M198.8,288.7h-44.4V254h44.4V288.7L198.8,288.7z
	 M139.2,288.7H94.8V254h44.4V288.7z M99.8,303.9v34.7H55.4v-34.7H99.8z M40.2,338.5h-25v-34.7h25L40.2,338.5L40.2,338.5z
	 M79.6,353.7v34.7H15.2v-34.7H79.6z M48.7,403.6H93v34.7H48.7V403.6z M108.2,403.6h44.4v34.7h-44.4V403.6z M167.8,403.6h111
	c4.2,0,7.6-3.4,7.6-7.6l0,0c0-4.2-3.4-7.6-7.6-7.6h-5.2v-34.7H318v34.7h-3.7c-4.2,0-7.6,3.4-7.6,7.6l0,0c0,4.2,3.4,7.6,7.6,7.6h13.2
	v34.7H167.8V403.6z M342.7,403.6h44.4v34.7h-44.4V403.6L342.7,403.6z M402.3,403.6h44.4v34.7h-44.4L402.3,403.6L402.3,403.6z
	 M392.8,388.4v-34.7h44.4v34.7H392.8z M413,338.5v-34.7h44.4v34.7H413z M79.6,254v34.7H15.2V254H79.6z M15.2,418.7v-15.1h18.2v34.6
	C23.3,437.5,15.2,429,15.2,418.7z M477.2,438.3h-15.3v-34.7h34.9v15.1C496.8,429.5,488,438.3,477.2,438.3z M496.8,388.4h-44.4v-34.7
	H465c4.2,0,7.6-3.4,7.6-7.6v-42.3h24.2v42.3L496.8,388.4L496.8,388.4z"/>
</svg>
