<?xml version="1.0" encoding="utf-8"?>
<!-- Generator: Adobe Illustrator 23.0.3, SVG Export Plug-In . SVG Version: 6.00 Build 0)  -->
<svg version="1.1" id="Слой_1" xmlns="http://www.w3.org/2000/svg" xmlns:xlink="http://www.w3.org/1999/xlink" x="0px" y="0px"
	 viewBox="0 0 49.7 48" style="enable-background:new 0 0 49.7 48;" xml:space="preserve">
<style type="text/css">
	.st0{fill:none;}
	.st1{fill:#BF4D0B;stroke:#BF4D0B;stroke-width:2;stroke-linecap:round;stroke-linejoin:round;}
</style>
<title  id="starIconTitle">Star</title>
<path class="st0" d="M42.7,3.5C33.5-7,12.7-8.5,4.6,1.1C-0.3,7,0.8,15.2,2,23.9c1.2,8.9,2.4,17.6,9.6,22.7c8.8,6.3,23,4.9,31.1-3.2
	c8.7-8.8,6.4-21.8,5.6-26.4C47.6,13.3,46.7,8.1,42.7,3.5z"/>
<polygon class="st1" points="45,19.7 32,17.8 26.1,6 20.3,17.8 7.3,19.7 16.7,28.8 14.5,41.8 26.1,35.7 37.8,41.8 35.6,28.8 "/>
</svg>
