<?xml version="1.0" encoding="utf-8"?>
<!-- Generator: Adobe Illustrator 23.0.3, SVG Export Plug-In . SVG Version: 6.00 Build 0)  -->
<svg version="1.1" id="Слой_1" xmlns="http://www.w3.org/2000/svg" xmlns:xlink="http://www.w3.org/1999/xlink" x="0px" y="0px"
	 viewBox="0 0 512 512" style="enable-background:new 0 0 512 512;" xml:space="preserve">
<style type="text/css">
	.st0{fill:#F2CE1B;}
</style>
<g id="Smiling_Face_With_Smiling_Eyes">
	<g id="Outline">
		<path class="st0" d="M120.3,53.8c1.5,0,2.9-0.4,4.2-1.2c3.7-2.4,4.8-7.3,2.4-11.1c-2.3-3.6-7.1-4.7-10.8-2.6l0,0
			c-3.8,2.3-4.9,7.2-2.6,11C114.9,52.4,117.5,53.8,120.3,53.8z"/>
		<path class="st0" d="M506.8,191.5c-3.4-15.5-8.4-30.6-15-45.1c-6.5-14.4-14.4-28-23.7-40.8c-9.3-12.8-19.7-24.7-31.3-35.5
			c-11.7-10.9-24.4-20.7-37.9-29.3c-13.8-8.7-28.3-16.1-43.5-22.1C340,12.7,323.9,8,307.5,4.9C290.5,1.6,273.3,0,256,0l0,0
			c-19.4,0-38.7,2-57.7,6.1c-18.3,3.9-36,9.8-53.1,17.4c-4,1.8-5.8,6.5-4,10.6c1.3,2.9,4.2,4.7,7.3,4.7c1.1,0,2.3-0.2,3.3-0.7l0,0
			C184.6,23.4,220.1,15.9,256,16c64.2,0,124.5,23.4,169.9,65.8C471.1,124.1,496,180.3,496,240c0,60.2-26.4,125.5-70.6,174.7
			C378.3,467.1,318.2,496,256,496h-0.1c-62.1,0-122.3-28.9-169.4-81.3C42.3,365.5,16,300.2,16,240c0-65.1,30.3-126.9,83.2-169.6
			c3.4-2.8,4-7.8,1.2-11.3s-7.8-4-11.3-1.2l0,0c-13.5,11-25.9,23.3-36.9,36.8c-10.9,13.4-20.3,28-28.1,43.4C8.2,169.7,0,204.6,0,240
			c0,16.7,1.8,33.4,5.2,49.8c3.5,16.6,8.4,32.9,14.9,48.6c6.5,15.9,14.4,31.2,23.5,45.8c9.2,14.6,19.6,28.4,31.1,41.3
			c11.5,12.8,24.1,24.6,37.8,35.2c13.6,10.5,28.1,19.7,43.5,27.4c15.4,7.7,31.5,13.6,48.2,17.7c34.1,8.4,69.7,8.4,103.8,0
			c16.7-4.1,32.8-10.1,48.2-17.7c15.4-7.7,29.9-16.8,43.5-27.4s26.3-22.3,37.8-35.2c11.5-12.9,21.9-26.7,31.1-41.3
			c9.1-14.6,17-29.9,23.5-45.8c6.4-15.7,11.4-32,14.9-48.6c3.4-16.4,5.2-33,5.2-49.8C512,223.7,510.2,207.5,506.8,191.5L506.8,191.5
			z"/>
		<path class="st0" d="M128,160c4.4,0,8-3.6,8-8c0-13.3,10.7-24,24-24s24,10.7,24,24c0,4.4,3.6,8,8,8s8-3.6,8-8
			c0-22.1-17.9-40-40-40s-40,17.9-40,40C120,156.4,123.6,160,128,160z"/>
		<path class="st0" d="M328,152c0-13.3,10.7-24,24-24s24,10.7,24,24c0,4.4,3.6,8,8,8s8-3.6,8-8c0-22.1-17.9-40-40-40s-40,17.9-40,40
			c0,4.4,3.6,8,8,8S328,156.4,328,152z"/>
		<path class="st0" d="M72,212c0,4.4,3.6,8,8,8c8.7,0.1,17.3-2,25-6.2c3.9,27.2,19.3,52.2,44.3,71.7C177.9,307.8,215.8,320,256,320
			s78.1-12.2,106.7-34.5c25-19.4,40.4-44.5,44.3-71.7c7.7,4.2,16.3,6.3,25,6.2c4.4,0,8-3.6,8-8s-3.6-8-8-8
			c-25.3,0-32-21.3-32.3-22.2c-1.2-4.2-5.6-6.7-9.9-5.5s-6.7,5.6-5.5,9.9c1.6,5.3,4.2,10.3,7.7,14.6c-0.6,57-61.4,103.2-136,103.2
			s-135.4-46.2-136-103.2c3.4-4.4,6-9.3,7.7-14.6c1.3-4.2-1.2-8.7-5.4-9.9c-4.2-1.3-8.7,1.2-9.9,5.4v0.1c-0.3,0.9-7,22.3-32.3,22.3
			C75.6,204,72,207.6,72,212L72,212z"/>
	</g>
</g>
</svg>
