<?xml version="1.0" encoding="utf-8"?>
<!-- Generator: Adobe Illustrator 23.0.3, SVG Export Plug-In . SVG Version: 6.00 Build 0)  -->
<svg version="1.1" id="Слой_1" xmlns="http://www.w3.org/2000/svg" xmlns:xlink="http://www.w3.org/1999/xlink" x="0px" y="0px"
	 viewBox="0 0 512 512" style="enable-background:new 0 0 512 512;" xml:space="preserve">
<style type="text/css">
	.st0{fill:#BBBBBB;}
</style>
<g id="Out_line">
	<path class="st0" d="M383.9,281l27.5-220c2.7-21.9-12.8-41.9-34.7-44.7c-1.6-0.2-3.3-0.3-5-0.3H262.2c-16.7,0.1-31.6,10.4-37.5,26
		l-51,136c-6.8,18.1-24.1,30-43.4,30.1H80c-13.2,0-24,10.8-24,24v48c0,4.4,3.6,8,8,8l0,0h22.7L58.3,472.7
		c-1.7,11,5.9,21.4,16.9,23.1c10.5,1.6,20.4-5.1,22.8-15.5L142.4,288h30.3l-28.4,184.7c-1.7,11,5.9,21.4,16.9,23.1
		c10.5,1.6,20.4-5.1,22.8-15.5L228.3,288h31.3L304,480.3c2.5,10.9,13.4,17.7,24.3,15.2c10.3-2.4,17.1-12.3,15.5-22.8L315.3,288h8.3
		L368,480.3c2.5,10.9,13.4,17.7,24.3,15.2c10.3-2.4,17.1-12.3,15.5-22.8l-28.5-185.4C381.8,286.2,383.6,283.8,383.9,281z M112,224
		h18.3c26-0.1,49.2-16.2,58.4-40.5l51-136c3.5-9.3,12.5-15.5,22.5-15.6h109.6c13.3,0,24,10.7,24,24c0,1-0.1,2-0.2,3l0,0L382,167.4
		c-2.4,19-16.3,34.6-34.9,39.3c10.4-9.9,17-23.1,18.8-37.3l10-80.4L360,87l-10,80.4c-2.9,23.2-22.6,40.6-46,40.6
		c-13.2,0-24,10.8-24,24v9.4c-2.6-0.9-5.3-1.4-8-1.4H112c-2.7,0-5.4,0.5-8,1.4V232C104,227.6,107.6,224,112,224z M328,272v-40
		c0-4.4,3.6-8,8-8c15,0,29.5-5.4,40.8-15.3l-7.9,63.3H328z M313.4,224c-0.9,2.6-1.4,5.3-1.4,8v40h-16v-40c0-4.4,3.6-8,8-8H313.4z
		 M280,272H104v-8c0-4.4,3.6-8,8-8h160c4.4,0,8,3.6,8,8V272z M72,232c0-4.4,3.6-8,8-8h9.4c-0.9,2.6-1.4,5.3-1.4,8v40H72V232z
		 M82.4,476.7c-0.5,2.3-2.8,3.7-5.1,3.2c-2.2-0.5-3.6-2.6-3.2-4.8L102.9,288H126L82.4,476.7z M168.4,476.7c-0.5,2.3-2.8,3.7-5.1,3.2
		c-2.2-0.5-3.6-2.6-3.2-4.8L188.8,288h23.1L168.4,476.7z M327.9,475.1c0.4,2.3-1.2,4.5-3.5,4.8c-2.2,0.3-4.3-1.1-4.8-3.2L276.1,288
		h23.1L327.9,475.1z M391,478.5c-1.5,1.8-4.2,2-6,0.5c-0.7-0.6-1.2-1.4-1.4-2.3L340.1,288h23.1L392,475.1
		C392.1,476.3,391.8,477.6,391,478.5L391,478.5z"/>
</g>
</svg>
