<svg id="Capa_1" enable-background="new 0 0 482.619 482.619" height="512" viewBox="0 0 482.619 482.619" width="512" xmlns="http://www.w3.org/2000/svg"><g><path d="m289.51 35.158c-5.796-1.23-11.46-1.297-16.869-.469-2.315-5.252-5.563-9.934-9.831-13.581-8.529-7.289-18.093-10.231-27.669-8.507-8.408 1.514-15.717 6.435-21.51 11.868-.081-10.221-.885-17.083-.983-17.886-.506-4.109-4.237-7.027-8.355-6.526-4.109.502-7.034 4.243-6.534 8.352.065.538 6.271 54.165-16.447 88.229-2.299 3.446-1.368 8.103 2.078 10.401 1.278.853 2.725 1.261 4.154 1.261 2.423 0 4.801-1.172 6.246-3.339 11.189-16.776 16.277-37.014 18.428-54.77.056-.092.118-.179.171-.274 3.088-5.556 13.673-20.44 25.41-22.553 5.133-.925 10.129.759 15.266 5.148 1.945 1.662 3.658 3.962 5.063 6.702-15.244 7.271-26.489 21.068-29.252 32.762-2.952 12.496 3.153 22.659 15.555 25.89 1.842.48 3.664.715 5.452.715 8.516-.001 16.224-5.344 21.288-15.047 4.93-9.446 6.98-22.169 5.437-34.199 3.205-.33 6.496-.202 9.789.497 4.046.859 8.033-1.727 8.894-5.78.859-4.053-1.729-8.035-5.781-8.894zm-31.636 41.435c-2.827 5.417-6.076 7.691-9.661 6.756-3.844-1.001-5.977-2.677-4.737-7.926 1.758-7.443 9.004-16.147 18.641-21.429.609 7.48-.582 15.582-4.243 22.599z" fill="#ab7b64"/><ellipse cx="56.815" cy="383.505" fill="#dc8995" rx="44.311" ry="44.311" transform="matrix(.014 -1 1 .014 -327.466 434.815)"/><path d="m100.953 379.595c-2.16-24.377-23.672-42.387-48.049-40.227-3.174.281-6.237.897-9.165 1.799 16.68 5.159 29.425 19.962 31.061 38.428 1.879 21.202-11.505 40.231-31.062 46.25 5.339 1.651 11.077 2.322 16.988 1.799 24.376-2.16 42.387-23.673 40.227-48.049z" fill="#d57784"/><path d="m104.849 434.394c2.16 24.377-15.851 45.889-40.227 48.049-24.377 2.16-45.889-15.85-48.049-40.227-1.879-21.203 11.503-40.239 31.06-46.257 2.928-.901 15.974 2.829 19.148 2.548 24.377-2.16 35.908 11.511 38.068 35.887z" fill="#e4a4ad"/><path d="m104.849 434.394c-2.16-24.377-23.672-42.387-48.049-40.227-3.174.281-6.237.897-9.165 1.799 16.68 5.159 29.425 19.962 31.061 38.428 1.879 21.202-11.505 40.231-31.062 46.25 5.339 1.651 11.077 2.323 16.988 1.799 24.377-2.16 42.387-23.672 40.227-48.049z" fill="#dc8995"/><ellipse cx="117.624" cy="400.904" fill="#e4a4ad" rx="44.311" ry="44.311" transform="matrix(.153 -.988 .988 .153 -296.539 455.939)"/><path d="m161.762 396.993c-2.16-24.377-23.672-42.387-48.049-40.227-3.174.281-6.237.898-9.165 1.799 16.679 5.159 29.425 19.962 31.061 38.428 1.879 21.202-11.505 40.231-31.062 46.25 5.339 1.651 11.077 2.322 16.988 1.799 24.376-2.16 42.386-23.672 40.227-48.049z" fill="#dc8995"/><circle cx="264.137" cy="234.486" fill="#dc808d" r="45.102"/><ellipse cx="204.07" cy="290" fill="#e4a4ad" rx="43.704" ry="43.917" transform="matrix(.707 -.707 .707 .707 -145.286 229.218)"/><path d="m251.123 286.17c-2.198-24.812-24.094-43.144-48.907-40.945-3.747.332-7.343 1.12-10.747 2.293 15.857 5.846 27.762 20.399 29.352 38.351 1.866 21.064-11.068 40.021-30.199 46.613 6.059 2.234 12.694 3.202 19.554 2.594 24.814-2.198 43.146-24.095 40.947-48.906z" fill="#dc96a0"/><ellipse cx="179.138" cy="137.447" fill="#dc8995" rx="50.829" ry="50.829" transform="matrix(.707 -.707 .707 .707 -44.722 166.927)"/><path d="m133.79 111.255 2.724 7.826c6.083 22.193 8.549 33.669-12.032 43.961-23.754 11.879-53.076 2.108-64.955-21.646s-2.108-53.076 21.646-64.955 53.076-2.108 64.955 21.646l-14.586 7.294c-3.416 1.709-1.435 6.884 2.248 5.874z" fill="#e4a4ad"/><path d="m199.818 340.557c2.441 27.962-16.24 49.618-43.785 52.095-6.672.6-14.825 2.864-20.852.974-18.856-5.912-33.262-22.908-35.112-44.097-2.441-27.962 17.911-52.639 45.456-55.116 27.544-2.478 51.853 18.182 54.293 46.144z" fill="#dc808d"/><path d="m201.333 340.557c-2.477-27.962-27.154-48.622-55.116-46.144-3.641.323-7.155 1.03-10.513 2.063 19.133 5.917 33.753 22.899 35.63 44.081 2.155 24.321-13.718 46.164-36.152 53.068 6.124 1.894 13.227 2.649 20.007 2.048 27.962-2.477 48.621-27.153 46.144-55.116z" fill="#dc7785"/><path d="m115.194 72.938c-9.366-2.479-18.812-2.025-27.383.776 24.258 7.886 38.403 33.452 31.795 58.414-4.363 16.482-16.724 28.706-31.807 33.636.861.28 1.731.542 2.617.777 25.848 6.842 52.348-8.565 59.19-34.412s-8.565-52.349-34.412-59.191z" fill="#dc96a0"/><circle cx="56.029" cy="169.917" fill="#e4a4ad" r="50.829"/><path d="m69.037 120.781c-9.566-2.532-19.213-2.151-28.016.579 25.932 7.987 41.151 35.097 34.145 61.564-4.651 17.571-17.96 30.535-34.128 35.55.657.202 1.314.402 1.984.579 27.137 7.184 54.96-8.992 62.143-36.129 7.184-27.137-8.991-54.959-36.128-62.143z" fill="#dc96a0"/><path d="m305.564 170.34c-2.843 10.738-8.917 19.76-16.901 26.297-12.194 9.984-32.774 14.183-47.589 7.329-25.477-11.788-40.966-32.503-33.782-59.64s35.006-43.313 62.143-36.129c27.138 7.184 43.313 35.006 36.129 62.143z" fill="#e4a4ad"/><path d="m269.435 108.197c-9.566-2.532-19.213-2.151-28.016.579 25.932 7.988 41.151 35.097 34.145 61.564-4.651 17.571-17.959 30.535-34.128 35.55.657.202 1.314.402 1.984.579 27.137 7.184 54.96-8.992 62.143-36.129 7.185-27.137-8.991-54.959-36.128-62.143z" fill="#dc96a0"/><ellipse cx="75.209" cy="246.012" fill="#dc8995" rx="50.829" ry="50.829" transform="matrix(.707 -.707 .707 .707 -151.929 125.236)"/><ellipse cx="126.669" cy="188.617" fill="#dc808d" rx="50.829" ry="50.829" transform="matrix(.865 -.503 .503 .865 -77.639 89.22)"/><path d="m238.697 224.07c-7.184 27.137-32.801 36.115-52.79 36.115-28.072 0-43.313-35.006-36.129-62.144 4.651-17.571 17.956-30.547 34.124-35.561 8.802-2.73 16.325.585 25.891 3.118 27.137 7.184 36.088 31.335 28.904 58.472z" fill="#e4a4ad"/><path d="m179.138 263.364c2.478 27.962-7.441 43.318-35.236 50.717-7.935 2.113-15.883 3.273-23.027.435-17.278-6.865-30.142-22.993-31.895-42.776-2.155-24.322 13.194-46.158 35.629-53.062 3.358-1.033 9.089.257 12.729-.066 27.963-2.476 39.322 16.79 41.8 44.752z" fill="#e4a4ad"/><path d="m211.922 161.912c-9.566-2.532-19.213-2.151-28.016.579 25.932 7.988 41.151 35.097 34.145 61.564-4.651 17.571-17.959 30.535-34.128 35.55.656.202 1.314.402 1.984.579 27.138 7.184 54.96-8.992 62.144-36.129 7.183-27.136-8.992-54.959-36.129-62.143z" fill="#dc96a0"/><path d="m190.241 262.769c-2.478-27.962-27.154-48.622-55.116-46.144-3.641.323-7.155 1.03-10.513 2.063 19.133 5.918 33.753 22.899 35.629 44.081 2.155 24.321-13.198 46.149-35.631 53.053 6.124 1.894 12.707 2.664 19.487 2.063 27.963-2.477 48.622-27.153 46.144-55.116z" fill="#dc96a0"/><path d="m124.61 315.822c2.478 27.962-10.027 47.73-37.989 50.208-6.78.601-13.719 4.642-19.843 2.748-19.133-5.917-33.749-22.909-35.626-44.092-2.194-24.759 13.752-46.942 36.846-53.419 2.988-.838 6.73.735 9.933.451 27.962-2.478 44.202 16.142 46.679 44.104z" fill="#e4a4ad"/><path d="m132.413 315.714c-2.477-27.962-27.154-48.622-55.116-46.144-3.641.323-7.155 1.03-10.513 2.063 19.133 5.918 33.753 22.899 35.63 44.081 2.155 24.321-13.198 46.149-35.631 53.053 6.124 1.894 12.707 2.664 19.487 2.063 27.961-2.477 48.62-27.154 46.143-55.116z" fill="#dc96a0"/><g><path d="m361.882 126.412c-9.901-3.01-14.689-18.004-23.169-22.254-9.471-4.747-24.479.037-31.666-5.748-8.614-6.934-6.336-22.262-10.817-29.839-3.893-6.581-11.17-12.615-14.566-18.636-1.597-2.831 6.061-4.256 6.936-7.137.844-2.776-5.489-6.081-2.742-7.525 6.163-3.24 15.771-4.179 22.786-7.536 7.939-3.8 14.577-17.802 25.591-18.768 9.191-.806 18.998 11.522 29.509 12.849 9.411 1.188 21.734-8.603 31.636-5.593 9.901 3.01 14.689 18.004 23.169 22.254 9.471 4.747 24.479-.037 31.666 5.748 8.614 6.934 6.336 22.262 10.818 29.839 5.723 9.676 18.763 18.17 16.025 27.176s-18.299 8.805-28.439 13.658c-7.939 3.8-14.577 17.802-25.591 18.768-9.191.807-18.998-11.522-29.509-12.849-9.411-1.188-21.735 8.603-31.637 5.593z" fill="#95c9a6"/></g><path d="m394.751 76.22c1.205-3.963-1.031-8.152-4.994-9.357l-103.896-31.587c-2.746 1.444-4.811 3.344-5.655 6.12s-.186 5.504 1.292 8.232l103.896 31.586c.728.221 1.462.326 2.185.326 3.214 0 6.189-2.084 7.172-5.32z" fill="#7fbd93"/><path d="" fill="#e4a4ad"/></g></svg>