<?xml version="1.0" encoding="utf-8"?>
<!-- Generator: Adobe Illustrator 23.0.3, SVG Export Plug-In . SVG Version: 6.00 Build 0)  -->
<svg version="1.1" id="Capa_1" xmlns="http://www.w3.org/2000/svg" xmlns:xlink="http://www.w3.org/1999/xlink" x="0px" y="0px"
	 viewBox="0 0 512 512" style="enable-background:new 0 0 512 512;" xml:space="preserve">
<style type="text/css">
	.st0{fill:#F2CE1B;}
</style>
<g>
	<path class="st0" d="M434.5,274.7l-98.3-61.3c17.8-15.6,31.1-36.4,37.4-59.9c10.7,0.3,20.3,9.6,28.7,27.7
		c4.4,9.5,10.4,11.2,14.2,11.2c1.3,0,2.3-0.2,2.9-0.4c11.6-3,16.8-21.4,14.8-52c-2.8-42.9-37-65.5-69.3-72.8
		c-6.3-12.7-14.8-24.2-25.3-34.1c-3-2.8-7.8-2.7-10.6,0.3c-2.8,3-2.7,7.8,0.3,10.6c9.9,9.4,17.8,20.3,23.4,32.2
		c0.2,0.5,0.4,1,0.7,1.4c2.8,6.2,5,12.7,6.6,19.4c-43.8,6.8-84.4-8.1-112.3-41.7c-2.8-3.4-6-3.7-7.6-3.6c-1.6,0.1-4.6,0.8-6.6,4.3
		c-18.1,29.3-48.2,44.4-81.4,41.4C163,50.3,205.4,15,256,15c17.3,0,33.7,4,49,11.8c3.7,1.9,8.2,0.5,10.1-3.2s0.5-8.2-3.2-10.1
		C294.5,4.5,275.7,0,256,0c-47.6,0-88.9,27.4-108.9,67.3c-32.3,7.3-66.4,29.8-69.2,72.7c-2,30.5,3.2,49,14.8,52
		c0.6,0.2,1.6,0.4,2.9,0.4c3.8,0,9.8-1.7,14.2-11.2c8.4-18.1,18-27.3,28.7-27.7c6.4,23.5,19.6,44.3,37.4,59.9l-98.3,61.3
		c-10.9,6.8-16.9,17.6-16.5,29.6c0.4,12.8,8.1,25,19.4,31.1c4.8,2.5,9.9,3.8,15.1,3.8c6.3,0,12.8-1.9,18.8-5.6l50.4-31.4v31.5
		l-64.5,89.2c-9,12.4-8,20.8-5.5,25.7c2.3,4.5,7.9,9.9,21.3,9.9h45.3l11.1,28.7c2.3,8.6,7.9,15.7,15.6,20.3
		c5.3,3.1,11.2,4.7,17.2,4.7c2.9,0,5.7-0.4,8.6-1.1c18-4.7,28.8-23,24.4-41l-1.6-11.6h39.2l-1.6,11.6c-4.4,18,6.5,36.3,24.4,41
		c2.8,0.7,5.7,1.1,8.5,1.1c14.9,0,28.6-9.9,32.8-25l11.1-28.7h45.3c13.4,0,19-5.4,21.3-9.9c2.5-4.8,3.5-13.2-5.5-25.6l-64.5-89.2
		v-31.5l50.4,31.4c6,3.7,12.4,5.6,18.8,5.6c5.2,0,10.3-1.3,15.1-3.8c11.3-6,19-18.2,19.4-31.1C451.4,292.3,445.4,281.5,434.5,274.7
		L434.5,274.7z M419.2,141c1.3,20-1,30.3-2.9,34.5c-0.1-0.2-0.2-0.5-0.4-0.8c-12.3-26.5-26.9-34.9-39.3-36.2
		c0.8-5.5,1.2-11.1,1.2-16.9c0-6.4-1.8-20.6-1.8-20.7c-1-5.5-2.3-10.8-3.9-16.1C390.4,91.2,416.9,106.3,419.2,141L419.2,141z
		 M135.6,103.2c-0.9,6-1.4,12.2-1.4,18.5c0,5.7,0.4,11.4,1.2,16.9c-12.4,1.3-26.9,9.7-39.3,36.2c-0.1,0.3-0.3,0.5-0.4,0.8
		c-1.9-4.2-4.2-14.6-2.9-34.5c2.3-34.7,28.7-49.8,47.1-56.1C138.1,90.6,135.6,103.1,135.6,103.2z M386.3,262.3l-20.9,33.4
		l-18.1-11.3c-0.4-22.7-9.3-44.2-24.7-60.7c0.3-0.2,0.6-0.4,0.9-0.6L386.3,262.3z M149.2,121.8c0-3.1,0.1-6.3,0.4-9.3
		c36.7,3.6,70.1-11.4,91.8-41.4c15.4,16.5,34.3,28.7,55.1,35.7c13.7,4.6,28.3,6.9,43.2,6.9c7.5,0,15.1-0.6,22.6-1.8
		c0.3,3.3,0.4,6.5,0.4,9.9c0,58.9-47.9,106.8-106.8,106.8C197.1,228.6,149.2,180.6,149.2,121.8L149.2,121.8z M106.3,320.8
		c-8.1,5.1-14.7,3.5-18.9,1.3c-6.6-3.5-11.2-10.9-11.5-18.4c-0.2-4.7,1.4-11.3,9.5-16.4l27.5-17.2l20.9,33.4L106.3,320.8z
		 M146.6,295.7l-20.9-33.4l62.8-39.2c0.3,0.2,0.6,0.4,0.9,0.6c-15.5,16.5-24.4,38.1-24.8,60.7L146.6,295.7z M209.9,496.4
		c-4.9,1.3-10,0.5-14.3-2c-4.4-2.6-7.5-6.7-8.8-11.5c-0.1-0.3-0.2-0.6-0.3-0.8L166,429.2c-3.9-10.1,2-21,10.5-26.6
		c9.1-6,21.4-5.9,30.4,0.4c4.5,3.1,7.7,7.9,8.5,13.3l7.9,56.1c0,0.3,0.1,0.6,0.2,0.8C226.1,483.4,220,493.7,209.9,496.4z M346,429.2
		L325.5,482c-0.1,0.3-0.2,0.5-0.3,0.8c-2.6,10.1-13,16.2-23.1,13.6s-16.2-13-13.6-23.1c0.1-0.3,0.1-0.6,0.2-0.8l7.9-56.1
		c0.8-5.5,4-10.3,9-13.7c7.1-4.8,16.6-5.8,24.6-2.7c7,2.7,13,8.4,15.6,15.4C347.5,419.8,347.7,424.7,346,429.2L346,429.2z
		 M399.7,431.6c4.5,6.3,4.5,9.6,4.3,10c-0.2,0.3-2.1,1.7-7.9,1.7h-39.5l3.4-8.8c3.6-9.2,2.9-19.4-1.9-28.6
		c-5.4-10.5-15.4-18.5-26.8-21.5s-24.1-0.9-33.9,5.6c-8.7,5.8-14.2,14.3-15.6,24.1l-4.1,29.1h-43.4l-4.1-29.1
		c-1.9-13.1-11.5-23.6-23.7-28.3c-12.7-4.8-27.1-3.3-38.4,4.2c-5.9,4-10.9,9.4-14.2,15.8c-4.7,9.3-5.4,19.4-1.8,28.6l3.4,8.8H116
		c-5.8,0-7.8-1.3-7.9-1.7c-0.2-0.5-0.3-3.8,4.3-10l63.7-88.1h62.7c4.1,0,7.5-3.4,7.5-7.5s-3.4-7.5-7.5-7.5h-59V286
		c0-20.6,8.4-40.3,23.3-54.7c16,7.8,34.1,12.2,53.1,12.2s37-4.4,53.1-12.2c14.9,14.4,23.3,34.1,23.3,54.7v42.4h-58.8
		c-4.1,0-7.5,3.4-7.5,7.5s3.4,7.5,7.5,7.5H336L399.7,431.6z M436,303.8c-0.3,7.5-4.9,14.8-11.5,18.4c-4.1,2.2-10.7,3.7-18.9-1.3
		l-27.5-17.2l20.9-33.4l27.5,17.2C434.6,292.5,436.1,299.1,436,303.8L436,303.8z"/>
	<path class="st0" d="M297.6,150.1c4.1,0,7.5-3.4,7.5-7.5v-10.9c0-4.1-3.4-7.5-7.5-7.5s-7.5,3.4-7.5,7.5v10.9
		C290.1,146.8,293.4,150.1,297.6,150.1z"/>
	<path class="st0" d="M214.4,150.1c4.1,0,7.5-3.4,7.5-7.5v-10.9c0-4.1-3.4-7.5-7.5-7.5s-7.5,3.4-7.5,7.5v10.9
		C206.9,146.8,210.3,150.1,214.4,150.1z"/>
	<path class="st0" d="M223.7,186.2c9.1,7.1,20.7,10.7,32.3,10.7s23.2-3.6,32.3-10.7c3.3-2.6,3.8-7.3,1.3-10.5
		c-2.6-3.3-7.3-3.8-10.5-1.3c-12.5,9.8-33.6,9.8-46.1,0c-3.3-2.6-8-2-10.5,1.3C219.9,179,220.5,183.7,223.7,186.2L223.7,186.2z"/>
</g>
</svg>
