<svg id="Capa_1" enable-background="new 0 0 512 512" height="512" viewBox="0 0 512 512" width="512" xmlns="http://www.w3.org/2000/svg"><g><g><path clip-rule="evenodd" d="m256.015 321.458 86.305 16.996 67.859 93.943c9.719 13.433 8.347 24.325-10.011 24.325-105.802 0-182.534 0-288.336 0-18.358 0-19.73-10.892-10.011-24.325l67.859-93.943z" fill="#bbec6a" fill-rule="evenodd"/></g><g><path clip-rule="evenodd" d="m111.248 260.045 22.007 12.499 7.647 35.013-34.878 21.785c-31.405 19.624-61.059-27.888-29.625-47.512z" fill="#fed1a3" fill-rule="evenodd"/></g><g><path clip-rule="evenodd" d="m331.579 395.836c18.037 4.702 30.967 23.975 24.254 41.35l-7.589 19.536-13.484 34.897c-3.794 14.513-18.738 23.274-33.215 19.507-14.506-3.796-23.262-18.748-19.497-33.232l3.006-21.172 5.166-36.649c2.599-18.455 23.322-28.968 41.359-24.237z" fill="#fed1a3" fill-rule="evenodd"/></g><g><path clip-rule="evenodd" d="m221.779 420.073 5.166 36.649 3.006 21.172c3.765 14.484-4.991 29.436-19.497 33.232-14.477 3.767-29.42-4.994-33.185-19.507l-13.513-34.897-7.589-19.536c-6.713-17.375 6.217-36.649 24.254-41.35 18.067-4.731 38.76 5.782 41.358 24.237z" fill="#fed1a3" fill-rule="evenodd"/></g><g><path clip-rule="evenodd" d="m400.752 260.045 34.849 21.785c31.434 19.624 1.78 67.136-29.625 47.512l-34.878-21.785v-34.108z" fill="#fed1a3" fill-rule="evenodd"/></g><g><path clip-rule="evenodd" d="m325.275 212.913 75.477 47.132-29.654 47.512-28.778-17.959c-20.664-13.053-41.562-32.736-30.413-68.246 4.641-2.511 9.106-5.343 13.368-8.439z" fill="#7bacdf" fill-rule="evenodd"/></g><g><path clip-rule="evenodd" d="m111.248 260.045 75.477-47.132c4.261 3.095 8.727 5.928 13.397 8.439-.876 28.998-3.911 56.36-30.442 68.246l-28.778 17.959z" fill="#7bacdf" fill-rule="evenodd"/></g><g><path clip-rule="evenodd" d="m311.907 221.353c18.592 15.886 30.413 39.452 30.413 65.676v2.57 48.855h-86.305-86.335v-48.855-2.57c0-26.224 11.85-49.79 30.442-65.676 40.599-18.106 55.893-26.312 111.785 0z" fill="#c5e3ff" fill-rule="evenodd"/></g><g><path clip-rule="evenodd" d="m149.104 68.421c23.233 24.763 29.887 51.717-7.997 74.787-17.395-3.446-31.784 8.965-42.7 32.444-7.327 15.768-21.044 6.248-18.097-38.577 2.861-43.511 39.578-63.106 68.794-68.654z" fill="#acacac" fill-rule="evenodd"/></g><g><path clip-rule="evenodd" d="m138.392 121.802c.263 7.33 1.167 14.484 2.714 21.405-17.395-3.446-31.784 8.965-42.7 32.444-6.012 12.937-16.315 8.848-18.183-17.784.934-.964 1.81-2.132 2.627-3.504 14.272-23.216 32.981-35.627 55.542-32.561z" fill="#838383" fill-rule="evenodd"/></g><g><path clip-rule="evenodd" d="m256.015 0c-64.999 0-117.681 52.71-117.681 117.714 0 65.033 52.682 117.743 117.681 117.743 64.97 0 117.652-52.71 117.652-117.743-.001-65.004-52.683-117.714-117.652-117.714z" fill="#fed1a3" fill-rule="evenodd"/></g><g><path clip-rule="evenodd" d="m362.896 68.45c29.216 5.519 65.933 25.114 68.793 68.625 2.948 44.825-10.77 54.345-18.096 38.576-10.916-23.479-25.305-35.889-42.671-32.444-29.536-26.924-21.218-52.768-8.026-74.757z" fill="#acacac" fill-rule="evenodd"/></g><g><path clip-rule="evenodd" d="m215.97 228.478c12.492 4.526 25.976 6.979 40.044 6.979 20.226 0 39.256-5.11 55.893-14.105 4.641-2.511 9.106-5.344 13.368-8.439 22.766-16.616 39.344-41.233 45.648-69.706 1.81-8.206 2.744-16.733 2.744-25.493 0-6.541-.525-12.966-1.547-19.215-14.302 3.008-28.457 3.855-42.146 2.628 5.458 67.224-46.436 125.482-114.004 127.351z" fill="#ffbc85" fill-rule="evenodd"/></g><g><path clip-rule="evenodd" d="m373.608 121.802c-.263 7.33-1.168 14.484-2.685 21.405 17.366-3.446 31.755 8.965 42.671 32.444 6.012 12.937 16.315 8.848 18.212-17.784-.934-.993-1.839-2.132-2.656-3.504-14.272-23.245-32.981-35.627-55.542-32.561z" fill="#838383" fill-rule="evenodd"/></g><g><path clip-rule="evenodd" d="m256.015 0c47.399 0 88.232 28.034 106.882 68.45 4.349 9.403 7.472 19.507 9.223 30.049-49.997 10.513-98.301-5.286-130.64-44.183-1.255-1.519-1.81-.759-2.16-.175-22.211 35.919-59.95 51.98-99.585 45.263 1.722-10.892 4.903-21.288 9.369-30.984 12.959-28.063 36.629-50.169 65.787-61.033 12.783-4.788 26.647-7.387 41.124-7.387z" fill="#acacac" fill-rule="evenodd"/></g><g><path d="m298.802 146.934c-4.264 0-7.72-3.459-7.72-7.726v-11.243c0-4.268 3.456-7.726 7.72-7.726s7.72 3.459 7.72 7.726v11.243c0 4.267-3.456 7.726-7.72 7.726z" fill="#838383"/></g><g><path d="m213.198 146.934c-4.264 0-7.72-3.459-7.72-7.726v-11.243c0-4.268 3.456-7.726 7.72-7.726s7.72 3.459 7.72 7.726v11.243c0 4.267-3.457 7.726-7.72 7.726z" fill="#838383"/></g><g><path d="m256 195.101c-11.959 0-23.918-3.659-33.237-10.977-3.354-2.634-3.94-7.491-1.308-10.848 2.632-3.358 7.485-3.943 10.839-1.309 12.851 10.091 34.562 10.091 47.413 0 3.354-2.633 8.207-2.048 10.839 1.309s2.046 8.214-1.308 10.848c-9.32 7.318-21.279 10.977-33.238 10.977z" fill="#838383"/></g><g><path clip-rule="evenodd" d="m362.896 68.45c-18.65-40.416-59.482-68.45-106.881-68.45-1.109 0-2.189 0-3.298.029 43.401 15.711 73.551 55.426 77.257 101.098 13.689 1.226 27.844.38 42.146-2.628-1.752-10.542-4.875-20.646-9.224-30.049z" fill="#838383" fill-rule="evenodd"/></g><g><path clip-rule="evenodd" d="m316.373 338.453h25.947v-48.855-2.57c0-26.224-11.821-49.79-30.413-65.676-5.049 2.716-10.274 5.081-15.702 7.067 17.658 22.603 25.772 54.2 20.168 110.034z" fill="#8ac9fe" fill-rule="evenodd"/></g><g><path clip-rule="evenodd" d="m342.32 338.453h-25.947l47.283 65.442c3.794 3.417 6.801 7.593 8.756 12.148l11.821 16.353c9.69 13.433 8.318 24.325-10.011 24.325h25.947c18.358 0 19.73-10.892 10.011-24.325z" fill="#97d729" fill-rule="evenodd"/></g><g><path clip-rule="evenodd" d="m198.604 410.904 6.479 45.818 1.693 11.973c3.765 14.513-4.991 29.465-19.468 33.232-1.401.38-2.802.613-4.203.759 6.596 7.476 17.103 11.097 27.348 8.439 14.506-3.796 23.262-18.748 19.497-33.232l-3.006-21.172-5.166-36.649c-2.131-15.214-16.578-25.026-31.697-25.377 4.466 4.236 7.618 9.726 8.523 16.209z" fill="#ffbc85" fill-rule="evenodd"/></g><g><path clip-rule="evenodd" d="m332.659 428.016-11.12 28.706-9.953 25.727c-2.948 11.272-12.667 19.098-23.67 20.208 3.473 4.001 8.143 7.038 13.63 8.469 14.477 3.767 29.42-4.994 33.215-19.507l13.484-34.897 7.589-19.536c6.713-17.375-6.217-36.649-24.254-41.35-2.744-.73-5.545-1.08-8.318-1.139 9.309 8.41 14.038 21.317 9.397 33.319z" fill="#ffbc85" fill-rule="evenodd"/></g><g><path clip-rule="evenodd" d="m128.76 288.138-34.849 21.756c-11.324 7.067-22.386 5.432-30.471-.467 3.094 17.521 22.474 32.473 42.583 19.916l34.878-21.785z" fill="#ffbc85" fill-rule="evenodd"/></g><g><path clip-rule="evenodd" d="m135.707 283.787-6.946 4.351 12.142 19.419 28.778-17.959v-2.57c0-9.491 1.547-18.631 4.407-27.216z" fill="#3987d0" fill-rule="evenodd"/></g><g><path clip-rule="evenodd" d="m383.24 288.138 34.849 21.756c11.324 7.067 22.386 5.432 30.471-.467-3.094 17.521-22.474 32.473-42.583 19.916l-34.878-21.785z" fill="#ffbc85" fill-rule="evenodd"/></g><g><path clip-rule="evenodd" d="m376.293 283.787 6.946 4.351-12.142 19.419-28.778-17.959v-2.57c0-9.491-1.547-18.631-4.407-27.216z" fill="#3987d0" fill-rule="evenodd"/></g></g></svg>