<?xml version="1.0" encoding="utf-8"?>
<!-- Generator: Adobe Illustrator 23.0.3, SVG Export Plug-In . SVG Version: 6.00 Build 0)  -->
<svg version="1.1" id="Слой_1" xmlns="http://www.w3.org/2000/svg" xmlns:xlink="http://www.w3.org/1999/xlink" x="0px" y="0px"
	 viewBox="0 0 512 512" style="enable-background:new 0 0 512 512;" xml:space="preserve">
<style type="text/css">
	.st0{fill:#AAAAAA;}
</style>
<g id="Page-1">
	<g>
		<path id="Shape" class="st0" d="M366.9,85.3h68.5c7.3,0,13.8-4.7,16.1-11.7c2.3-7-0.3-14.6-6.3-18.8l-38.6-27.3
			c-4.1-4-29.7-27.5-56.7-27.5c-28.3,0-51.2,22.9-51.2,51.2v148c0,7.6-2.6,15.1-7.3,21.1c-20.7,26.1-76.5,86.9-146.3,86.9
			c-22.5,0.6-44.8-3.5-65.6-12.1c-4.5-2-9.8-1.5-13.8,1.3c-4,2.9-6.3,7.6-5.9,12.6c5.6,72.7,70.5,131.9,154.7,141.7
			c7.3,5,15.7,8.3,24.5,9.5v26.2c0,14.1,11.5,25.6,25.6,25.6h17.1c4.7,0,8.5-3.8,8.5-8.5s-3.8-8.5-8.5-8.5h-17.1
			c-4.7,0-8.5-3.8-8.5-8.5v-26.2c10.7-1.4,20.8-5.9,28.9-13c78.6-17.9,133.2-78.6,133.2-148.5c-0.2-34.8-13.5-68.2-37.2-93.7
			c-14.2-15.3-22.3-35.4-22.6-56.3V93.9C358.4,89.2,362.2,85.3,366.9,85.3z M401.4,44.7l34,23.6h-44.3
			C390.6,59.2,394.4,50.5,401.4,44.7L401.4,44.7z M368.3,216.4c20.9,22.4,32.6,51.7,32.8,82.3c0,56.8-41.6,106.9-103.3,127.1
			c0.6-2.5,0.8-5.1,0.9-7.7c0-4.7-3.8-8.5-8.5-8.5s-8.5,3.8-8.5,8.5c0,14.1-15.3,25.6-34.1,25.6s-34.1-11.5-34.1-25.6
			c0-4.7-3.8-8.5-8.5-8.5c-4.7,0-8.5,3.8-8.5,8.5c0,4.3,0.8,8.6,2.3,12.6c-65.3-14-114.3-60.9-121.3-118.1
			c17.5,6.6,35.9,10.4,54.6,11.2c8.7,11.1,40.2,43.1,115.6,43.1c91.1,0,110.5-82.6,110.7-83.5c1-4.6-1.9-9.2-6.5-10.2
			s-9.2,1.9-10.2,6.5c-10.9,42.6-50.1,71.9-94.1,70.1c-49.9,0-77.8-14.9-91.7-26.2c72.1-5.6,127.8-66,149-92.8
			c7.1-9,11-20.2,11-31.7v-148c0-18.9,15.3-34.1,34.1-34.1c14.1,1.6,27.4,7.4,38,16.9c-9.2,9-14.2,21.5-13.8,34.3h-7.1
			c-14.1,0-25.6,11.5-25.6,25.6v54.7C341.6,173.8,351.2,197.9,368.3,216.4L368.3,216.4z"/>
		<path class="st0" d="M170,384.9c-15.3-7.7-28.9-18.5-39.7-31.8c-2.9-3.7-8.3-4.3-12-1.4s-4.3,8.3-1.4,12
			c12.3,15.2,27.8,27.7,45.3,36.4c4.2,2,9.2,0.3,11.2-3.8C175.6,392.2,174,387.2,170,384.9L170,384.9z"/>
		<path class="st0" d="M318.1,241.5c-14.9,18.8-31.8,35.9-50.4,51.1c-2.5,1.9-3.8,5-3.3,8s2.5,5.7,5.5,6.8c2.9,1.1,6.2,0.5,8.6-1.5
			c19.6-15.9,37.4-34,53.1-53.8c2.7-3.7,2-8.9-1.6-11.8C326.3,237.5,321.1,238,318.1,241.5L318.1,241.5z"/>
		<path class="st0" d="M319.6,378.1c-2.6,1.6-4.1,4.6-4,7.6c0.2,3.1,2,5.8,4.7,7.2c2.8,1.4,6,1.2,8.6-0.6
			c27.2-16.7,46.5-43.8,53.3-75c0.9-4.6-2.1-9.1-6.8-10s-9.1,2.1-10,6.8C359.5,340.8,343,363.9,319.6,378.1L319.6,378.1z"/>
		<circle id="Oval" class="st0" cx="349.9" cy="42.7" r="8.5"/>
	</g>
</g>
</svg>
