<?xml version="1.0" encoding="utf-8"?>
<!-- Generator: Adobe Illustrator 23.0.3, SVG Export Plug-In . SVG Version: 6.00 Build 0)  -->
<svg version="1.1" id="Capa_1" xmlns="http://www.w3.org/2000/svg" xmlns:xlink="http://www.w3.org/1999/xlink" x="0px" y="0px"
	 viewBox="0 0 512 512" style="enable-background:new 0 0 512 512;" xml:space="preserve">
<style type="text/css">
	.st0{fill:#AAAAAA;}
</style>
<g>
	<g>
		<path d="M463.8,250.5c-6.7-4.2-15.1-5.3-22.9-2.9c-7.8,2.4-14.2,7.9-17.5,15.1c-1.7,3.8,0,8.2,3.7,9.9c3.7,1.7,8.2,0,9.9-3.7
			c1.5-3.3,4.5-5.8,8.1-6.9c3.7-1.1,7.6-0.7,10.6,1.2c3.5,2.2,8.1,1.1,10.3-2.4C468.4,257.3,467.3,252.7,463.8,250.5z"/>
	</g>
</g>
<g>
	<g>
		<path class="st0" d="M478.9,164.1c-20.1-24.4-48.5-43.8-82.2-56.1c-13.8-5.1-28.5-8.8-43.6-11.3c-17.6-18.4-39.9-32.7-64.7-41.3
			c-16.2-5.6-32.9-8.6-48.4-8.6c-28.4,0-49.3,9.6-57.4,26.3c-4.9,10.1-6.8,26.7,9.3,50.3c-37.5,20.1-69.4,49.8-93.5,87
			C86.9,197.7,76,188.1,66,181.8c-9.6-6-18.6-9.1-26.7-9.1c-9.1,0-21.7,3.9-30,22.3C3.1,208.7,0,229.2,0,256c0,26.8,3.1,47.3,9.3,61
			c8.3,18.4,20.9,22.3,30,22.3c8.1,0,17.1-3.1,26.7-9.1c10-6.3,20.9-15.9,32.3-28.5c24.1,37.2,56,66.9,93.5,87
			c-16.1,23.6-14.1,40.2-9.3,50.3c8.1,16.7,29,26.3,57.4,26.3c15.5,0,32.2-3,48.4-8.6c24.8-8.6,47.1-22.9,64.7-41.3
			c15.1-2.5,29.8-6.2,43.6-11.3c33.7-12.3,62.2-31.7,82.2-56.1c21.2-25.8,33.1-58.6,33.1-91.9C512,222.2,500.6,190.4,478.9,164.1z
			 M285.5,70.2c15.4,5.6,29.8,13.6,42.3,23.6c-17.1-1-34.2-0.4-51.2,2c-0.6,0.1-1.2,0.2-1.8,0.3c-17.8,2.6-35.6,7.1-52.6,13.5
			c-0.2,0.1-0.3,0.1-0.5,0.2c0.1-0.1,0.2-0.2,0.2-0.3c6.3-7.9,13.7-14.9,22-20.8c12.1-8.6,25.9-14.6,40.3-18.2
			C284.6,70.4,285.1,70.3,285.5,70.2z M196.1,79.6c5.4-11.2,21.8-17.8,43.9-17.8c6.1,0,12.4,0.5,18.8,1.5
			c-31.5,13.5-48.6,35-56.7,48.3C194.2,98.8,192.1,87.9,196.1,79.6z M40.1,271.9c0,0,0,0.1,0,0.1c0.9,16.7,2.7,34.2,10.9,49
			c0,0.1,0.1,0.2,0.1,0.3c-4.4,2-8.3,3-11.8,3C18.2,324.3,15,281.5,15,256c0-25.5,3.2-68.3,24.3-68.3c3.5,0,7.4,1,11.8,3
			c0,0.1-0.1,0.2-0.1,0.3c-9.2,16.8-10.7,37.5-11.2,56.3C39.6,255.2,39.6,263.7,40.1,271.9z M85.8,280.4c0.4,0.7,4.7,7.6,4.4,7.9
			c-9.3,10.6-18.1,19-26.2,25.1c-0.1-0.1-0.3-0.5-0.3-0.6c-8.7-16.9-8.9-38.3-8.9-56.8c0-15.2,0.7-30.7,4.7-45.4
			c1.1-3.9,2.4-7.8,4.3-11.4c0.1-0.1,0.3-0.5,0.3-0.6c8.1,6.1,16.9,14.5,26.2,25.1c0.3,0.4-4,7.3-4.4,7.9
			C77.7,246.9,77.7,265.1,85.8,280.4z M184.8,326.5c-4,0.9-6.6,4.9-5.6,9c2.6,11.6,5.9,23,9.7,34.2c0,0,0,0.1,0,0.1
			c-33.6-20.2-61.9-49-83.1-84.5c-2.3-3.9-4.6-7.9-6.7-11.9c-5.8-10.9-5.8-23.9,0-34.7c2.1-4,4.4-8,6.7-11.9
			c21.2-35.4,49.6-64.2,83.1-84.5c-12.6,36.5-18.6,75.2-18.6,113.8c0,16.5,1.1,33.2,3.4,49.5c0.6,4.1,4.3,7,8.4,6.4
			c4-0.6,7-4.4,6.4-8.5c-2.1-15.6-3.2-31.6-3.2-47.5c0-42.4,7.6-85.2,23.7-124.5c0.1-0.1,0.2-0.1,0.4-0.2c6.5-3.1,13.1-5.9,19.9-8.3
			c6.2-2.2,12.4-4.2,18.7-6c0.3-0.1,0.5-0.1,0.8-0.2c-0.1,0.2-0.2,0.4-0.3,0.6c-17.9,32.8-28.2,69.6-31.9,106.7
			c-1.1,10.6-1.6,21.3-1.6,32c0,38.5,6.8,77.2,21.3,112.9c3.6,8.8,7.6,17.4,12.2,25.8c0.1,0.2,0.2,0.4,0.3,0.5
			c-0.3-0.1-0.5-0.1-0.8-0.2c-13.3-3.6-26.2-8.4-38.6-14.3c-0.1-0.1-0.2-0.1-0.4-0.2c-0.5-0.2-1.2-2.9-1.4-3.5
			c-5.8-14.6-10.3-29.6-13.8-44.9C192.8,328.1,188.8,325.5,184.8,326.5z M240,450.3C240,450.3,240,450.3,240,450.3
			c-22.1,0-38.5-6.7-43.9-17.8c-4-8.3-1.9-19.3,6-32c8.1,13.3,25.2,34.8,56.7,48.3C252.4,449.7,246.1,450.3,240,450.3z M285.5,441.8
			c-15.8-3.8-31.1-10.4-44.1-20.3c-7.2-5.5-13.8-11.8-19.5-18.9c-0.1-0.1-0.2-0.2-0.3-0.3c0.1,0.1,0.3,0.1,0.4,0.2
			c16.8,6.3,34.2,10.8,51.9,13.4c17.8,2.6,35.8,3.5,53.8,2.4C315.3,428.2,300.9,436.2,285.5,441.8z M353.6,400.1
			c-3.4-6.7-6.4-13.5-9.3-20.5C328.4,340.5,321,298.1,321,256c0-24.7,2.6-49.1,7.6-72.6c0.9-4-1.7-8-5.7-8.9c-3.8-0.8-8,1.7-8.9,5.7
			c-5.3,24.5-8,50-8,75.7c0,50,10.2,100.4,31.6,145.7c0.1,0.2,0.2,0.4,0.3,0.6c-8.5,0.9-17.1,1.4-25.6,1.4
			c-13.5,0-43.2-3.6-43.4-3.9c-0.1-0.2-0.3-0.4-0.4-0.6c-20.2-32-31.8-69.1-36.4-106.5c-1.5-12.1-2.2-24.3-2.2-36.5c0,0,0-0.1,0-0.1
			c0-37.2,6.7-75,21.1-109.4c4.3-10.4,9.4-20.3,15.1-30c0.4-0.7,2.6-4.2,2.7-4.4c0.6-0.1,2.7-0.5,3.1-0.6
			c13.3-2.2,26.8-3.4,40.3-3.4c8.6,0,17.2,0.5,25.7,1.4c-4.2,8.7-14.6,36.1-16.1,40.8c0,0,0,0,0,0.1c-1.2,3.9,1,8.2,4.9,9.4
			c4,1.2,8.2-1,9.4-4.9c4-12.7,8.8-25.2,14.5-37.2c0.9-2,1.9-4,2.9-6c10.1,1.8,20.1,4.2,29.6,7.2c-0.7,1.2-1.3,2.5-2,3.8
			c-21.1,40.9-30.5,87.3-30.5,133.1c0,47.3,10,95,32.5,136.8C373.6,395.9,363.7,398.3,353.6,400.1z M472.7,291
			c6.8,1.9,13.5,2.6,18.7,2.8c-12.5,41.1-45.6,74.7-93.9,93.9c-0.2-0.3-1.2-2.1-1.4-2.7c-16-30.1-25.3-63.5-28.8-97.4
			c-1.1-10.5-1.6-21.1-1.6-31.7c0-35.1,5.8-70.7,18.6-103.4c3.8-9.7,8.2-19.2,13.2-28.3C459.9,149.1,497,198,497,256
			c0,7.8-0.7,15.5-2,22.9c-4.5,0-11.4-0.4-18.3-2.4c-4-1.1-8.1,1.2-9.2,5.2C466.4,285.8,468.7,289.9,472.7,291z"/>
	</g>
</g>
</svg>
