<?xml version="1.0" encoding="utf-8"?>
<!-- Generator: Adobe Illustrator 23.0.3, SVG Export Plug-In . SVG Version: 6.00 Build 0)  -->
<svg version="1.1" id="Capa_1" xmlns="http://www.w3.org/2000/svg" xmlns:xlink="http://www.w3.org/1999/xlink" x="0px" y="0px"
	 viewBox="0 0 512 512" style="enable-background:new 0 0 512 512;" xml:space="preserve">
<style type="text/css">
	.st0{fill:#AAAAAA;}
</style>
<g>
	<path class="st0" d="M501,80.7c-2.5-2.8-5.1-5.8-6.7-8.5c-1.1-1.8-1.7-5.6-2.3-9.2c-1.3-7.6-2.9-17-10.4-23.1
		c-5.9-4.7-13.8-4.9-20.8-5c-4.8-0.1-9.7-0.2-12.7-1.7c-2.3-1.1-5-4.7-7.5-8.2c-4.3-5.8-9.3-12.4-17.1-14.8
		c-7.9-2.4-15.6,0.4-22.5,2.8c-4.1,1.4-8.3,2.9-10.8,2.6c-3.3-0.4-7.5-3.1-11.5-5.7c-5.9-3.8-12.5-8-20-7.4
		c-9.6,0.8-16.2,7.8-21.5,13.4c-2.5,2.7-5.1,5.4-7.1,6.3c-2.8,1.4-6.6,2.4-10.3,3.3c-7.1,1.9-15.6,4.1-20.1,10.3
		c-5.1-0.9-10.2-0.8-15-0.1c-2.3-5.3-5.6-10.1-10-13.8c-8.6-7.4-18.3-10.4-28.1-8.6c-8.5,1.5-15.8,6.5-21.7,11.9
		c-0.1-10.4-1-17.3-1.1-18.1c-0.6-4.2-4.4-7.1-8.6-6.5c-4.2,0.6-7.1,4.4-6.5,8.6c0.1,0.5,6.6,51.4-15.5,86
		c-13.9-2.2-28.1,0.6-40.1,8c-7.7-11-18.8-18.9-32-22.4c-30.2-8-61.3,10.1-69.3,40.3c-0.6,2.3-1.1,4.6-1.4,6.9
		c-13.9,2.1-27,9.1-36.4,20.2c-2.7,3.2-2.3,8,0.9,10.7c3.2,2.7,8,2.3,10.7-0.9c10.9-12.9,28.5-18.4,44.8-14.1
		c9.3,2.5,17.4,7.8,23.3,15.3c-9.8,7.9-16.8,18.6-20.1,31c-1.3,4.9-1.9,9.8-2,14.6c-14.1,1.7-26.9,8.4-36.3,18.5
		c-14.1-9.1-21.8-25.3-19.8-42.1c0.5-4.2-2.5-8-6.6-8.5c-4.2-0.5-8,2.5-8.5,6.6c-2.7,22.3,7.5,44,26,56.3c-2.1,4-3.8,8.2-5,12.7
		c-5.4,20.6,0.4,41.9,15.2,56.8c-7.8,11.3-11.5,24.9-10.2,38.8c0.5,5.5,1.7,10.8,3.6,15.8c-15.3,10.7-24,29-22.4,47.8
		c0.8,9.6,4.3,18.6,9.9,26.3c-4.7,8.9-6.8,19-5.9,29.3c1.2,14,7.8,26.6,18.6,35.6c9.5,8,21.3,12.3,33.6,12.3c1.6,0,3.1-0.1,4.7-0.2
		c22.1-2,40.1-17.1,46-38.2c2.3,0.3,4.7,0.5,7,0.5c1.6,0,3.1-0.1,4.7-0.2c14-1.2,26.6-7.8,35.6-18.6c8.1-9.7,12.4-21.8,12.2-34.3
		c10.2-3.4,19.3-9.6,26.4-18.1c9.6-11.5,14.4-25.8,13.7-40.7c0.5,0,1.1-0.1,1.6-0.1c28.8-2.5,50.2-27.6,48.5-56.3
		c1.9,0.2,3.8,0.3,5.8,0.3c1.6,0,3.2-0.1,4.8-0.2c29.3-2.6,51-28.5,48.4-57.8c-1.2-13.1-7.2-25.4-16.8-34.3c6-6.8,10.6-14.9,13-24.1
		c3.8-14.3,2.1-29.3-4.7-42.4c-1.9-3.7-6.5-5.2-10.3-3.2c-3.7,1.9-5.2,6.5-3.2,10.3c5.1,9.7,6.3,20.9,3.5,31.5
		c-5.1,19.2-22.7,32.7-42.4,32.7c0,0-0.1,0-0.1,0c-1.2-6.7-3.6-13.2-7.1-19.2c-7.9-13.7-20.7-23.4-36-27.4c-0.2-0.1-0.4-0.1-0.7-0.2
		c0.2-2.8,0.6-5.6,1.4-8.4c3-11.3,10.2-20.8,20.4-26.7c10.1-5.9,22-7.5,33.3-4.5c3.1,0.8,6,1.9,8.8,3.4c3.7,1.9,8.3,0.4,10.2-3.3
		c1.9-3.7,0.4-8.3-3.3-10.2c-3.8-1.9-7.7-3.4-11.8-4.5c-14.8-3.9-30.2-2-43.6,5.3c-6.2-9.8-15.2-17.5-25.7-22.3
		c8.9-15.5,13.3-32.9,15.2-48.4c0,0,0-0.1,0.1-0.1c3.1-5.6,13.9-20.7,25.8-22.9c5.2-0.9,10.3,0.8,15.5,5.2c2,1.7,3.7,4,5.1,6.8
		c-15.5,7.4-26.9,21.4-29.7,33.2c-3,12.7,3.2,23,15.8,26.2c1.9,0.5,3.7,0.7,5.5,0.7c8.6,0,16.4-5.4,21.6-15.3
		c5-9.6,7.1-22.5,5.5-34.7c2.9-0.3,5.8-0.2,8.8,0.3c1.9,5.7,6.3,10.6,10.1,14.9c2.5,2.8,5.1,5.8,6.7,8.5c1.1,1.8,1.7,5.6,2.3,9.2
		c1.3,7.6,2.9,17,10.4,23.1c5.9,4.7,13.8,4.9,20.8,5c4.8,0.1,9.7,0.2,12.7,1.7c2.3,1.1,5,4.7,7.5,8.2c4.3,5.8,9.3,12.4,17.1,14.8
		c7.9,2.4,15.6-0.4,22.5-2.8c4.1-1.4,8.3-2.9,10.8-2.6c3.3,0.4,7.5,3.1,11.5,5.7c5.5,3.5,11.6,7.5,18.5,7.5c0.5,0,1,0,1.5-0.1
		c9.6-0.8,16.2-7.8,21.5-13.4c2.5-2.7,5.1-5.4,7.1-6.3c2.8-1.4,6.6-2.4,10.3-3.3c8.7-2.3,19.4-5.1,22.5-15.2
		C514.4,95.8,507,87.5,501,80.7L501,80.7z M74.3,129.5c-2.8-0.7-5.6-1.3-8.4-1.6c0.2-0.9,0.4-1.8,0.6-2.7
		c5.9-22.1,28.6-35.3,50.7-29.5c10.7,2.8,19.7,9.7,25.2,19.3c5.6,9.6,7.1,20.8,4.2,31.5c-0.2,0.7-0.4,1.4-0.6,2.1
		c-0.1,0-0.1,0-0.2,0c-13.2-3.5-26.9-2.4-39.2,3.1C98.8,140.8,87.4,133,74.3,129.5L74.3,129.5z M88.3,194.4
		c3-11.3,10.2-20.8,20.4-26.7c10.1-5.9,22-7.5,33.3-4.5c10.7,2.8,19.7,9.4,25.6,18.6c-10.2,7.9-17.4,18.8-20.8,31.5
		c-1.1,4.3-1.8,8.6-1.9,13c-2.1,0-4.1,0-6.2,0.2c-12.7,1.1-24.5,6.3-33.9,14.6C90.2,230.4,83.6,212,88.3,194.4L88.3,194.4z
		 M147.8,329.1c-1.4,0.1-2.8,0.2-4.2,0.2c-2.3-13.9-9.4-26.4-20.4-35.6c-6.8-5.7-14.7-9.8-23.1-11.9c1.7-21,18.6-38.3,39.9-40.2
		c11.7-1,23.1,2.5,32.1,10.1s14.5,18.1,15.6,29.8C189.8,305.6,171.9,327,147.8,329.1z M89.1,382.8c-11.7,1-23.1-2.5-32.1-10.1
		c-9-7.5-14.5-18.1-15.6-29.8c-1-11.7,2.5-23.1,10.1-32.1c7.5-9,18.1-14.5,29.8-15.6c1.3-0.1,2.6-0.2,4-0.2
		c10.3,0,20.1,3.6,28.1,10.3c9,7.5,14.5,18.1,15.6,29.8c1,11.7-2.5,23.1-10.1,32.1C111.4,376.2,100.8,381.7,89.1,382.8L89.1,382.8z
		 M36.1,252.6c4.7-17.6,19.6-30.3,37.3-32.4c3.2,12.6,10.6,24.1,21.3,32.3c-5.5,8.2-8.8,17.6-9.7,27.4c-1.7,0-3.3,0.1-5,0.2
		c-12.4,1.1-24,6-33.2,14C36.3,283.1,32.2,267.5,36.1,252.6L36.1,252.6z M37.3,373.6c2.9,3.9,6.2,7.6,10,10.8
		c8,6.7,17.4,11.1,27.4,12.9c-1.5,3-2.8,6.2-3.7,9.5c-3.9-0.5-7.8-0.6-11.7-0.3c-12.2,1.1-23.4,6.3-32,14.7c-2.5-4.5-4-9.4-4.5-14.6
		C21.6,393.7,27.2,381.3,37.3,373.6L37.3,373.6z M67.2,495.9c-9.9,0.9-19.6-2.2-27.3-8.6c-7.6-6.4-12.3-15.4-13.2-25.3
		c-0.9-9.9,2.2-19.6,8.6-27.3c6.4-7.6,15.4-12.3,25.3-13.2c2.8-0.3,5.7-0.2,8.5,0.2c0,1.2,0.1,2.4,0.2,3.7
		c1.2,14,7.8,26.6,18.6,35.6c3.7,3.1,7.7,5.6,12,7.6C95.8,483.5,82.7,494.6,67.2,495.9L67.2,495.9z M150.2,444.8
		c-6.4,7.6-15.4,12.3-25.3,13.2c-9.9,0.9-19.6-2.2-27.3-8.6c-7.6-6.4-12.3-15.4-13.2-25.3c-0.8-9.6,2-18.9,7.9-26.4
		c4.2-0.5,8.3-1.4,12.3-2.8c10.7,17.5,30.1,28.4,50.6,28.4c1.2,0,2.4-0.1,3.6-0.1C158.4,431.1,155.4,438.6,150.2,444.8L150.2,444.8z
		 M188.8,392.4c-7.5,9-18.1,14.5-29.8,15.6c-16.2,1.4-32-6.4-40.7-19.9c4.6-3.1,8.7-6.8,12.3-11.1c7.8-9.3,12.5-20.6,13.5-32.5
		c1.7,0,3.3-0.1,5-0.2c12.9-1.1,24.4-6.4,33.5-14.3c9.2,7.4,15.2,18.4,16.3,30.4C199.9,372,196.4,383.4,188.8,392.4L188.8,392.4z
		 M214.5,346.2c-1,0.1-2,0.1-3,0.1c-3.4-10.8-10-20.5-18.7-27.8c6.1-9,9.8-19.7,10.2-31.1c0.4,0,0.7,0,1.1,0c11.2,0,21.9-3.2,31-8.9
		c8,6.5,13.1,15.9,14,26.3C250.9,325.8,235.4,344.4,214.5,346.2L214.5,346.2z M273.5,290.1c-4.3,0.4-8.5,0-12.6-1
		c-3-7.7-7.7-14.6-13.8-20.2c6.6-7,11.6-15.6,14.1-25.4c0.9-3.5,1.5-7,1.8-10.5c11.6-0.1,22.6-3.7,31.9-9.9
		c7.5,6.5,12.3,15.7,13.2,25.6C310,269.7,294.5,288.2,273.5,290.1z M242,206.3c5.9,10.1,7.5,22,4.5,33.3
		c-5.3,20.1-24.2,33.8-44.9,32.6c0,0,0,0,0,0c-2.8-12.6-9.6-23.8-19.7-32.2c-6.5-5.4-13.9-9.3-21.8-11.6c0-3.8,0.5-7.6,1.5-11.3
		c3-11.3,10.2-20.8,20.4-26.7c10.1-5.9,22-7.5,33.3-4.5C226.6,188.9,236.1,196.1,242,206.3z M221.6,131c-7.9,7.5-13.6,17-16.4,27.7
		c-0.9,3.4-1.5,6.9-1.8,10.5c-7.8,0.1-15.4,1.7-22.6,4.8c-5.2-8.2-12.3-14.9-20.6-19.7c0.5-1.3,0.9-2.7,1.2-4
		c3-11.2,2.4-22.7-1.3-33.4c10.4-6.8,23-8.9,35.2-5.6C206.2,114.2,215.7,121.3,221.6,131L221.6,131z M269.6,78.4
		c-2.9,5.5-6.2,7.8-9.8,6.8c-3.9-1-6.1-2.7-4.8-8c1.8-7.5,9.1-16.4,18.9-21.7C274.5,63,273.3,71.2,269.6,78.4L269.6,78.4z
		 M496.7,101.5c-0.6,2-7.3,3.7-11.8,4.9c-4.4,1.1-8.9,2.3-13,4.3c-4.5,2.1-8.1,5.9-11.5,9.6c-3.9,4.1-7.9,8.4-11.8,8.7
		c-2.3,0.2-6.7-2.6-10.5-5c-5.2-3.3-11.1-7.1-17.8-8c-0.9-0.1-1.8-0.2-2.7-0.2c-5.2,0-10.2,1.8-15.2,3.5c-4.9,1.7-9.9,3.5-13,2.6
		c-3.1-0.9-6.3-5.2-9.4-9.4c-3.6-4.9-7.4-9.9-12.9-12.7c-6.1-3-13.1-3.2-19.2-3.3c-4.5-0.1-9.7-0.2-11.5-1.6c-3-2.4-4-8.2-5-13.8
		c-0.8-5-1.7-10.2-4.2-14.4c-2.3-4-5.4-7.5-8.4-10.8c-0.2-0.2-0.4-0.5-0.6-0.7l92.9,28.3c0.7,0.2,1.5,0.3,2.2,0.3
		c3.3,0,6.3-2.1,7.3-5.4c1.2-4-1-8.3-5.1-9.5l-92.9-28.3c0.3-0.1,0.6-0.2,0.9-0.2c4.4-1.1,8.9-2.3,13-4.3c4.5-2.1,8.1-5.9,11.5-9.6
		c3.9-4.1,7.9-8.4,11.8-8.7c2.3-0.2,6.7,2.6,10.5,5c5.2,3.3,11.1,7.1,17.8,8c6.1,0.8,12.1-1.3,17.8-3.4c4.9-1.7,9.9-3.5,13-2.6
		c3.1,0.9,6.3,5.2,9.4,9.4c3.6,4.9,7.4,9.9,12.9,12.7c6.1,3,13.1,3.2,19.2,3.3c4.5,0.1,9.7,0.2,11.5,1.6c3,2.4,4,8.2,5,13.8
		c0.8,5,1.7,10.2,4.2,14.4c2.3,4,5.4,7.5,8.4,10.8C492.7,94.3,497.3,99.5,496.7,101.5L496.7,101.5z"/>
</g>
</svg>
