<?xml version="1.0" encoding="utf-8"?>
<!-- Generator: Adobe Illustrator 23.0.3, SVG Export Plug-In . SVG Version: 6.00 Build 0)  -->
<svg version="1.1" id="Слой_1" xmlns="http://www.w3.org/2000/svg" xmlns:xlink="http://www.w3.org/1999/xlink" x="0px" y="0px"
	 viewBox="0 0 512 512" style="enable-background:new 0 0 512 512;" xml:space="preserve">
<style type="text/css">
	.st0{fill:#AAAAAA;}
</style>
<g id="Page-1">
	<g transform="translate(-1 -1)">
		<path id="Shape" class="st0" d="M97.8,49.6c-8.6-8.9-20.3-14.1-32.7-14.4c-8-0.2-15.8,2.8-21.6,8.4c-6.1,6.5-9.2,15.3-8.3,24.2
			c1,11.4,6.1,22.1,14.3,30.1c7.2,7.5,16.7,12.4,27,14c0.4,0.1,0.8,0.1,1.2,0.1c4.5,0,8.2-3.5,8.5-7.9c0.3-4.5-2.9-8.4-7.3-9
			c-6.6-1.1-12.6-4.3-17.3-9.1c-5.3-5.1-8.6-11.9-9.4-19.1c-0.5-4,0.7-8,3.4-11c2.6-2.3,6-3.6,9.6-3.4c7.8,0.3,15.2,3.7,20.6,9.5
			c5.1,4.9,8.4,11.5,9.3,18.6c0.5,4.6,4.6,7.9,9.3,7.5c4.6-0.4,8-4.5,7.7-9.1C110.8,67.6,105.8,57.4,97.8,49.6z"/>
		<path class="st0" d="M512.8,69.9c1.6-18.7-5-37.2-18.2-50.6C481.2,6.2,462.8-0.4,444,1.2c-19.7,1.5-38.2,10.1-52.1,24.3
			c-6.3,6.3-11.7,13.6-15.8,21.5C301.4,8.3,212.5,8.4,137.8,47.2c-4.1-8-9.4-15.4-15.8-21.8C108.1,11.3,89.7,2.7,70,1.2
			C51.2-0.4,32.8,6.2,19.4,19.4C6.2,32.8-0.5,51.2,1.2,69.9c1.5,19.7,10.1,38.2,24.3,52.1c5.2,5.2,11,9.7,17.3,13.5
			C21.1,170.8,9.6,211.3,9.5,252.7c0,79.5,67.1,165,156.5,200.1c0.7,1,1.4,2.1,2.2,3.1c7.6,9.5,17.9,16.4,29.6,20.1
			c2.8,21.1,20.8,37,42.1,37h34.1c21.3-0.1,39.3-15.9,42.1-37c11.6-3.6,21.9-10.6,29.6-20.1c0.8-1,1.5-2.1,2.2-3.1
			c89.4-35.1,156.5-120.6,156.5-200.1c-0.1-41.4-11.5-82-33.2-117.4c6.3-3.7,12.1-8.2,17.3-13.4C502.7,108.1,511.3,89.7,512.8,69.9z
			 M274.1,495.9h-34.1c-10.8,0-20.4-6.9-24-17.1h0.5h81.2h0.5C294.5,489.1,284.9,495.9,274.1,495.9z M297.6,461.8h-32.1v-34.1h0.7
			c8.4,0.1,16.3-3.9,21.2-10.6l7.8-10.8c5.3-7.3,6-17,1.6-25c-4.6-8.3-13.4-13.4-22.9-13.3H240c-9.5-0.1-18.3,5-22.9,13.3
			c-4.3,7.9-3.7,17.7,1.7,25l7.8,10.8c4.9,6.7,12.8,10.7,21.2,10.6h0.7v34.1h-32.1c-13.5,0-26.2-6-34.7-16.5
			c-8.5-10.5-11.8-24.2-9-37.4L201,276.5c5.8-26.3,29.1-45.1,56-45.1s50.3,18.8,56,45.1L341.3,408c2.8,13.2-0.5,26.9-9,37.4
			C323.8,455.8,311.1,461.8,297.6,461.8L297.6,461.8z M247.8,410.6c-2.9,0-5.6-1.3-7.3-3.5l-7.8-10.8c-1.5-2-1.7-4.7-0.5-6.9
			c1.6-2.8,4.6-4.4,7.8-4.3H274c3.2-0.1,6.2,1.6,7.8,4.3c1.2,2.2,1,4.9-0.5,6.9l-7.8,10.8c-1.8,2.3-4.5,3.6-7.3,3.5H247.8z
			 M462.7,120.7c-4,2.3-6.8,6.1-7.9,10.6c-1.1,4.5-0.4,9.2,2,13.2c20,32.6,30.6,70.1,30.7,108.3c0,68-54.5,141.1-129.4,177.1
			c1.8-8.4,1.8-17,0-25.4l-28.3-131.5c-7.5-34.2-37.7-58.6-72.7-58.6s-65.3,24.4-72.7,58.6L156,404.4c-1.8,8.4-1.8,17,0,25.4
			C81,393.8,26.6,320.7,26.6,252.7c0-38.3,10.7-75.8,30.7-108.4c2.4-3.9,3.2-8.7,2-13.2c-1.1-4.4-4-8.3-7.9-10.6
			c-5.1-3-9.7-6.6-13.9-10.7C26.3,99,19.4,84.4,18.2,68.8C16.9,55,21.8,41.4,31.4,31.4c9.9-9.7,23.6-14.5,37.4-13.2
			c15.6,1.2,30.2,8.1,41.1,19.3c5.1,5.1,9.4,11,12.7,17.4c2,4,5.6,7.1,9.9,8.4c4.4,1.4,9.2,1,13.3-1.2c69.8-36,152.7-36,222.6-0.1
			c4.1,2.2,8.8,2.6,13.2,1.2c4.3-1.4,7.8-4.4,9.9-8.4c3.3-6.4,7.6-12.3,12.7-17.4c10.9-11.2,25.5-18,41.1-19.3
			c13.8-1.3,27.5,3.6,37.4,13.2c9.7,9.9,14.5,23.6,13.2,37.4c-1.2,15.6-8.1,30.2-19.3,41.1C472.4,114.1,467.7,117.7,462.7,120.7
			L462.7,120.7z"/>
		<path class="st0" d="M319.1,61.1c-40.6-11.8-83.7-11.8-124.3,0c-4.5,1.3-7.1,6.1-5.8,10.6c1.3,4.5,6.1,7.1,10.6,5.8
			c37.5-10.9,77.2-10.9,114.7,0c4.5,1.3,9.3-1.3,10.6-5.8C326.2,67.1,323.6,62.4,319.1,61.1z"/>
		<path class="st0" d="M448.8,35.1c-12.4,0.3-24.1,5.5-32.6,14.4c-7.9,7.8-12.9,18-14.2,29c-0.4,4.7,3,8.9,7.7,9.3
			c2.3,0.3,4.5-0.4,6.3-1.9c1.8-1.4,2.8-3.5,3-5.8c0.9-7.1,4.2-13.6,9.3-18.6c5.4-5.7,12.8-9.1,20.6-9.4c3.5-0.2,7,1.1,9.6,3.4
			c2.6,3,3.8,7,3.3,11c-0.8,7.3-4.1,14.1-9.4,19.3c-4.6,4.8-10.7,8-17.2,9c-4.4,0.6-7.6,4.6-7.3,9c0.3,4.5,4,7.9,8.5,7.9
			c0.4,0,0.8,0,1.2-0.1c10.3-1.6,19.7-6.5,27-13.9c8.2-8,13.3-18.7,14.3-30.2c0.9-8.9-2.2-17.7-8.3-24.1
			C464.7,37.9,456.9,34.9,448.8,35.1L448.8,35.1z"/>
		<path class="st0" d="M257,248.5c-18.9,0-35.2,13.2-39.3,31.6L206.5,332c-0.7,3,0.3,6.2,2.5,8.2s5.5,2.8,8.4,1.8
			c2.9-1,5.1-3.4,5.7-6.5l11.2-51.9c2.4-10.6,11.8-18.2,22.7-18.2c4.7,0,8.5-3.8,8.5-8.5C265.5,252.3,261.7,248.5,257,248.5
			L257,248.5z"/>
		<path class="st0" d="M154.6,214.3h-34.1c-4.7,0-8.5,3.8-8.5,8.5c0,4.7,3.8,8.5,8.5,8.5h10.1c-1,2.7-1.5,5.6-1.6,8.5
			c0,14.1,11.5,25.6,25.6,25.6s25.6-11.5,25.6-25.6C180.2,225.8,168.7,214.3,154.6,214.3z M154.6,248.5c-4.7,0-8.5-3.8-8.5-8.5
			c0-4.7,3.8-8.5,8.5-8.5s8.5,3.8,8.5,8.5C163.1,244.6,159.3,248.5,154.6,248.5z"/>
		<path class="st0" d="M393.5,214.3h-34.1c-14.1,0-25.6,11.5-25.6,25.6c0,14.1,11.5,25.6,25.6,25.6c14.1,0,25.6-11.5,25.6-25.6
			c0-2.9-0.6-5.8-1.6-8.5h10.1c4.7,0,8.5-3.8,8.5-8.5C402.1,218.2,398.2,214.3,393.5,214.3z M367.9,239.9c0,4.7-3.8,8.5-8.5,8.5
			s-8.5-3.8-8.5-8.5c0-4.7,3.8-8.5,8.5-8.5S367.9,235.2,367.9,239.9z"/>
	</g>
</g>
</svg>
