<?xml version="1.0" encoding="utf-8"?>
<!-- Generator: Adobe Illustrator 23.0.3, SVG Export Plug-In . SVG Version: 6.00 Build 0)  -->
<svg version="1.1" id="Слой_1" xmlns="http://www.w3.org/2000/svg" xmlns:xlink="http://www.w3.org/1999/xlink" x="0px" y="0px"
	 viewBox="0 0 512 512" style="enable-background:new 0 0 512 512;" xml:space="preserve">
<style type="text/css">
	.st0{fill:#673389;}
	.st1{fill:#D65A05;}
	.st2{fill:#EAA27F;}
	.st3{fill:#F6BA97;}
	.st4{fill:#2F373B;}
	.st5{fill:#FFFFFF;}
	.st6{fill:#F46D11;}
	.st7{fill:#FFE05C;}
	.st8{fill:#E89F18;}
</style>
<path class="st0" d="M512,256c0,141.4-114.6,256-256,256S0,397.4,0,256S114.6,0,256,0S512,114.6,512,256z"/>
<path class="st1" d="M415,219.9c29.6-29.6,29.6-77.5,0-107.1c-29.6-29.6-77.5-29.6-107.1,0"/>
<path class="st1" d="M90.7,219.9c-29.6-29.6-29.6-77.5,0-107.1c29.6-29.6,77.5-29.6,107.1,0"/>
<path class="st2" d="M382.1,449.6v29.2c-15,8.5-31,15.6-47.8,20.9c-1.7,0.6-3.5,1.1-5.2,1.6c-6.5,1.9-13.1,3.6-19.9,5
	c-2.9,0.6-5.9,1.2-8.9,1.7c-14.4,2.5-29.3,3.9-44.4,3.9s-30-1.3-44.4-3.8c-3-0.5-5.9-1.1-8.9-1.7c-7.8-1.7-15.5-3.7-23-6
	c-0.4-0.1-0.8-0.3-1.3-0.4c-0.3-0.1-0.6-0.2-0.8-0.3c-16.7-5.4-32.7-12.4-47.8-20.9v-29.2c0-35.3,19.2-66.1,47.8-82.5
	c7.7-4.5,16.2-7.9,25.1-10c4.7-1.1,9.6-1.9,14.5-2.3c2.6-0.2,5.2-0.3,7.8-0.3H287c7.3,0,14.5,0.8,21.3,2.4c0.3,0.1,0.7,0.2,1,0.2
	c8.9,2.1,17.3,5.5,25.1,10C362.9,383.5,382.1,414.3,382.1,449.6z"/>
<path class="st3" d="M382.1,449.6v29.2c-35.4,20.1-76.1,32-119.5,33.1c-2.2,0.1-4.4,0.1-6.6,0.1s-4.4,0-6.6-0.1
	c-24.7-0.6-48.5-4.7-70.9-11.9v-50.5c0-52.5,42.6-95.1,95.1-95.1H287C339.5,354.4,382.1,397,382.1,449.6z"/>
<path class="st2" d="M289.9,317.8v41.7c0,15.3-10.1,28.1-23.9,32.4c-3.2,1-6.5,1.5-10,1.5c-18.7,0-33.9-15.2-33.9-33.9v-41.7H289.9z
	"/>
<path class="st3" d="M289.9,356.8v2.6c0,15.3-10.1,28.1-23.9,32.4c-12.5-3.8-21.9-14.7-23.6-28c2.3,0.1,4.5,0.2,6.8,0.2
	c6.4,0,12.7-0.5,18.9-1.5C275.7,361.4,283,359.4,289.9,356.8z"/>
<path class="st3" d="M161.4,249.5c0,15.7-11.5,28.7-26.5,31.2c-1.6,0.3-3.3,0.4-5.1,0.4c-17.4,0-31.6-14.1-31.6-31.6
	c0-17.4,14.1-31.6,31.6-31.6c1.7,0,3.4,0.1,5.1,0.4C149.9,220.8,161.4,233.8,161.4,249.5z"/>
<path class="st2" d="M161.4,249.5c0,15.7-11.5,28.7-26.5,31.2c-2.7-9.9-4.2-20.4-4.2-31.2c0-10.8,1.5-21.2,4.2-31.2
	C149.9,220.8,161.4,233.8,161.4,249.5z"/>
<path class="st2" d="M141.1,249.5c0,6.2-5.1,11.3-11.3,11.3c-6.2,0-11.3-5.1-11.3-11.3c0-6.2,5.1-11.3,11.3-11.3
	C136,238.3,141.1,243.3,141.1,249.5z"/>
<path class="st3" d="M350.6,249.5c0,15.7,11.5,28.7,26.5,31.2c1.6,0.3,3.3,0.4,5.1,0.4c17.4,0,31.6-14.1,31.6-31.6
	c0-17.4-14.1-31.6-31.6-31.6c-1.7,0-3.4,0.1-5.1,0.4C362.1,220.8,350.6,233.8,350.6,249.5z"/>
<path class="st2" d="M350.6,249.5c0,15.7,11.5,28.7,26.5,31.2c2.7-9.9,4.2-20.4,4.2-31.2c0-10.8-1.5-21.2-4.2-31.2
	C362.1,220.8,350.6,233.8,350.6,249.5z"/>
<path class="st2" d="M393.5,249.5c0,6.2-5.1,11.3-11.3,11.3s-11.3-5.1-11.3-11.3c0-6.2,5.1-11.3,11.3-11.3S393.5,243.3,393.5,249.5z
	"/>
<path class="st2" d="M373.4,188v44.7c0,58.4-42.7,106.9-98.6,115.9c-0.2,0-0.4,0.1-0.6,0.1c-5.9,0.9-12.1,1.4-18.3,1.4
	c-64.9,0-117.4-52.6-117.4-117.4V188c0-13.7,2.3-26.8,6.6-39c16.1-45.7,59.6-78.5,110.8-78.5h0c6.2,0,12.3,0.5,18.3,1.4
	C330.5,80.8,373.4,129.4,373.4,188z"/>
<path class="st3" d="M373.4,188v44.7c0,58.4-42.7,106.9-98.6,115.9c-0.2,0-0.4,0.1-0.6,0.1c-56.2-8.8-99.1-57.4-99.1-116V188
	c0-58.6,43-107.3,99.2-116C330.5,80.8,373.4,129.4,373.4,188z"/>
<g>
	<path class="st2" d="M335.9,263.6c0,8.1-6.6,14.6-14.6,14.6s-14.6-6.5-14.6-14.6c0-8.1,6.6-14.6,14.6-14.6S335.9,255.5,335.9,263.6
		z"/>
	<path class="st2" d="M205.3,263.6c0,8.1-6.6,14.6-14.6,14.6s-14.6-6.5-14.6-14.6c0-8.1,6.6-14.6,14.6-14.6S205.3,255.5,205.3,263.6
		z"/>
	<path class="st2" d="M319.1,222.8c0-10.8-8.7-19.5-19.5-19.5c-10.8,0-19.5,8.7-19.5,19.5"/>
	<path class="st2" d="M231.9,222.8c0-10.8-8.7-19.5-19.5-19.5c-10.8,0-19.5,8.7-19.5,19.5"/>
</g>
<path class="st4" d="M225.8,231.1c0,7.4-6,13.3-13.3,13.3c-7.4,0-13.3-6-13.3-13.3c0-7.4,6-13.3,13.3-13.3
	C219.8,217.8,225.8,223.8,225.8,231.1z"/>
<path class="st4" d="M312.9,231.1c0,7.4-6,13.3-13.3,13.3c-7.4,0-13.3-6-13.3-13.3c0-7.4,6-13.3,13.3-13.3
	C306.9,217.8,312.9,223.8,312.9,231.1z"/>
<path class="st2" d="M269.3,264.7h-26.6c-3.2,0-5.7-2.6-5.7-5.7c0-3.2,2.6-5.7,5.7-5.7h26.6c3.2,0,5.8,2.6,5.8,5.7
	C275.1,262.1,272.5,264.7,269.3,264.7z"/>
<path class="st2" d="M256,301c-9.8,0-19.7-2.5-28.6-7.4c-2.5-1.4-3.5-4.6-2.1-7.1s4.6-3.4,7.1-2.1c14.8,8.1,32.4,8.1,47.2,0
	c2.5-1.4,5.7-0.5,7.1,2.1c1.4,2.5,0.5,5.7-2.1,7.1C275.7,298.6,265.8,301,256,301z"/>
<path class="st5" d="M223.1,228.8c0,3.2-2.6,5.7-5.7,5.7c-3.2,0-5.7-2.6-5.7-5.7c0-3.2,2.6-5.7,5.7-5.7
	C220.5,223.1,223.1,225.6,223.1,228.8z"/>
<path class="st5" d="M310.8,228.8c0,3.2-2.6,5.7-5.7,5.7s-5.7-2.6-5.7-5.7c0-3.2,2.6-5.7,5.7-5.7S310.8,225.6,310.8,228.8z"/>
<path class="st1" d="M373.4,150.2v61.5c-12.1,0-21.9-9.8-21.9-21.9v-29.7l-157.8-29.3l-33.4-6.2v65.2c0,12.1-9.8,21.9-21.9,21.9
	v-61.5c0-52.2,42.3-94.6,94.6-94.6h45.8c1.2,0,2.5,0,3.7,0.1C333.1,57.7,373.4,99.2,373.4,150.2z"/>
<path class="st6" d="M373.4,150.2v61.5c-12.1,0-21.9-9.8-21.9-21.9v-29.7l-157.8-29.3c8.7-41.8,44.9-73.4,88.8-75.1
	C333.1,57.7,373.4,99.2,373.4,150.2z"/>
<path class="st7" d="M333.5,363.9V500c-1.5,0.5-2.9,0.9-4.4,1.4c-6.5,1.9-13.1,3.6-19.9,5c-2.9,0.6-5.9,1.2-8.9,1.7
	c-14.4,2.5-29.3,3.9-44.4,3.9s-30-1.3-44.4-3.8c-0.9-0.1-1.7-0.3-2.6-0.5c-1.7-0.3-3.5-0.7-5.2-1c-0.3-0.1-0.7-0.1-1-0.2
	c-8.2-1.7-16.3-3.9-24.2-6.4V363.9l24.2-10.4v63.3c0,7.2,2.3,13.9,6.3,19.4c6,8.4,15.8,13.8,26.9,13.8h40.2
	c18.3,0,33.2-14.9,33.2-33.2v-63.3L333.5,363.9z"/>
<path class="st8" d="M209,436.1v71.5c-1.7-0.3-3.5-0.7-5.2-1c-0.3-0.1-0.7-0.1-1-0.2c-8.2-1.7-16.3-3.9-24.2-6.4V363.9l24.2-10.4
	v63.3C202.7,424,205,430.7,209,436.1z"/>
<path class="st7" d="M351.6,160.2v-33.7c0-4.5-5.9-6.2-8.3-2.4l-19.8,30.9"/>
<path class="st7" d="M323.4,154.9v-33.7c0-4.5-5.9-6.2-8.3-2.4l-19.8,30.9"/>
</svg>
