<?xml version="1.0" encoding="utf-8"?>
<!-- Generator: Adobe Illustrator 23.0.3, SVG Export Plug-In . SVG Version: 6.00 Build 0)  -->
<svg version="1.1" id="Layer_1" xmlns="http://www.w3.org/2000/svg" xmlns:xlink="http://www.w3.org/1999/xlink" x="0px" y="0px"
	 viewBox="0 0 512 512" style="enable-background:new 0 0 512 512;" xml:space="preserve">
<style type="text/css">
	.st0{fill:#7E40BF;}
	.st1{fill:#E6E6E6;}
	.st2{fill:#D3D3D3;}
	.st3{fill:#72CDED;}
	.st4{fill:#5FBAD3;}
	.st5{fill:#E0B394;}
	.st6{fill:#F7CBA4;}
	.st7{fill:#D7E9F4;}
	.st8{fill:#B6CDD8;}
	.st9{fill:#ED7C58;}
	.st10{fill:#4D4D4D;}
</style>
<ellipse class="st0" cx="257.1" cy="266.1" rx="242.2" ry="244.8"/>
<path class="st1" d="M310.4,54.4c0,0.9,0,1.8-0.1,2.7c-1.4,28.8-25.2,51.8-54.4,51.8c-29.2,0-53-22.9-54.4-51.8
	c0-0.9-0.1-1.8-0.1-2.7C201.6,24.4,225.9,0,256,0C286.1,0,310.4,24.4,310.4,54.4z"/>
<path class="st2" d="M223.1,54.4c0-26.4,18.8-48.4,43.6-53.4C263.3,0.4,259.7,0,256,0c-30.1,0-54.4,24.4-54.4,54.4
	s24.4,54.4,54.4,54.4c3.7,0,7.3-0.4,10.8-1.1C241.9,102.8,223.1,80.8,223.1,54.4z"/>
<path class="st3" d="M334.1,336.9c-3.6-1.3-7.3-2.3-11.2-3.1H189.1c-3.8,0.7-7.6,1.8-11.2,3.1c-29.9,10.7-51.3,39.3-51.3,72.9v63.8
	C164,497.3,208.2,511,255.8,511c47.7,0,92.2-13.9,129.6-37.8v-63.5C385.4,376.2,364,347.6,334.1,336.9z"/>
<path class="st4" d="M159.5,490v-80.3c0-37.6,26.9-69,62.5-76h-32.9c-35.6,6.9-62.5,38.3-62.5,76v62.8
	C137.1,479.2,148.1,485,159.5,490z"/>
<path class="st4" d="M334.1,336.9l-39.7,28.9c-22.8,16.6-53.8,16.6-76.6,0l-39.7-28.9c3.6-1.3,7.3-2.3,11.2-3.1h133.8
	C326.7,334.6,330.4,335.6,334.1,336.9z"/>
<g>
	<path class="st5" d="M138.1,236.7c-14.1-0.6-25.3-12.2-25.3-26.5c0-14.6,11.8-26.5,26.5-26.5c1.3,0,2.6,0.1,3.9,0.3"/>
	<path class="st5" d="M373.9,236.7c14.1-0.6,25.3-12.2,25.3-26.5c0-14.6-11.9-26.5-26.5-26.5c-1.3,0-2.6,0.1-3.9,0.3"/>
</g>
<path class="st6" d="M305.4,309.9v63c0,27.3-22.1,49.4-49.4,49.4c-27.3,0-49.4-22.1-49.4-49.4v-63H305.4z"/>
<path class="st5" d="M305.4,309.9v47.8l-11.1,8.1c-22.8,16.6-53.8,16.6-76.6,0l-11.1-8.1v-47.8L305.4,309.9L305.4,309.9z"/>
<path class="st6" d="M217.7,351.2l-46.6-33.9c-24.6-17.9-37.9-47.5-35-77.8l8.1-83.6c5.6-57.6,54-101.5,111.8-101.5l0,0
	c57.9,0,106.3,43.9,111.8,101.5l8.1,83.6c2.9,30.3-10.4,59.9-35,77.8l-46.6,33.9C271.5,367.8,240.5,367.8,217.7,351.2z"/>
<path class="st5" d="M165.1,256.1c-0.8,13.2,3.5,26.3,12.1,36.4l48.7,59.8c2.5,3,5.4,5.6,8.5,7.6c-5.9-2-11.5-5-16.7-8.8l-46.6-33.8
	c-24.6-17.9-37.9-47.5-35-77.8l8.1-83.6c5.5-57,53-100.7,110.2-101.5c-35.2,0.9-75,34-77.1,69.3L165.1,256.1z"/>
<path class="st2" d="M310.4,57.1c-1.4,28.8-25.2,51.8-54.4,51.8c-29.2,0-53-22.9-54.4-51.8c15.4-8.5,33-13.5,51.7-14
	c0.3,0,0.7,0,1,0c0.6,0,1.1,0,1.7,0C275.6,43.1,294.2,48.1,310.4,57.1z"/>
<path class="st1" d="M369.2,169.9c-53.7,0-83.7-57.1-83.7-57.1s-25.1,46.4-111.5,45.3c-9.3-0.1-19.2-0.8-29.9-2.1h0
	c5.5-56.7,52.5-100.2,109.1-101.5c0.3,0,0.7,0,1,0c0.6,0,1.1,0,1.7,0c28.9,0,55.5,11,75.5,29.2c20,18.2,33.5,43.6,36.3,72.4
	L369.2,169.9z"/>
<path class="st2" d="M254.3,54.4c-35.2,0.9-75,34-77.1,69.3l-3.1,34.3c-9.3-0.1-19.2-0.8-29.9-2.1h0
	c5.5-56.7,52.5-100.2,109.1-101.5C253.6,54.4,254,54.4,254.3,54.4z"/>
<g>
	<circle class="st7" cx="305.1" cy="232.6" r="31.8"/>
	<circle class="st7" cx="206.9" cy="232.6" r="31.8"/>
</g>
<g>
	<path class="st8" d="M311.9,233.8h-13.6c-3.8,0-6.8-3-6.8-6.8s3-6.8,6.8-6.8h13.6c3.8,0,6.8,3,6.8,6.8S315.7,233.8,311.9,233.8z"/>
	<path class="st8" d="M213.7,233.8h-13.6c-3.8,0-6.8-3-6.8-6.8s3.1-6.8,6.8-6.8h13.6c3.8,0,6.8,3,6.8,6.8S217.4,233.8,213.7,233.8z"
		/>
</g>
<path class="st5" d="M247,279.2l14.8-3.9c4.6-1.2,7.3-5.9,6-10.4L257.8,227"/>
<path class="st9" d="M376.6,198.4c-2-2.4-5.6-2.6-8-0.6l-27.6,23.9c-4.7-15.3-19-26.5-35.8-26.5c-18.7,0-34.3,13.8-37,31.8h-24.2
	c-2.7-18-18.3-31.8-37-31.8c-16.8,0-31.1,11.2-35.8,26.5l-27.6-23.9c-2.4-2-6-1.8-8,0.6c-2,2.4-1.8,6,0.6,8l33.5,28.9
	c1.4,19.4,17.6,34.8,37.3,34.8c18.7,0,34.3-13.8,37-31.8h24.2c2.7,18,18.3,31.8,37,31.8c19.7,0,36-15.4,37.3-34.8l33.5-28.9
	C378.4,204.3,378.6,200.8,376.6,198.4z M206.9,258.7c-14.4,0-26.1-11.7-26.1-26.1s11.7-26.1,26.1-26.1s26.1,11.7,26.1,26.1
	S221.3,258.7,206.9,258.7z M305.1,258.7c-14.4,0-26.1-11.7-26.1-26.1s11.7-26.1,26.1-26.1s26.1,11.7,26.1,26.1
	S319.5,258.7,305.1,258.7z"/>
<path class="st10" d="M225.1,293.8c6.6,1.5,11.7,2.7,16.7,3.3c5,0.7,9.6,1,14.2,1c4.6,0,9.2-0.3,14.2-1c5-0.6,10.2-1.8,16.8-3.3
	c-1.5,6.6-6.1,11.9-11.6,15.7c-5.6,3.7-12.5,5.7-19.3,5.6c-6.8,0-13.7-2-19.3-5.7C231.1,305.7,226.6,300.4,225.1,293.8z"/>
<path class="st4" d="M185.8,499.6l-7.5-95.8l-7.2,90.8C175.9,496.5,180.8,498.1,185.8,499.6z"/>
<path class="st4" d="M341,495.7l-7.3-92.8l-7.7,98C331.1,499.3,336.1,497.6,341,495.7z"/>
</svg>
