<svg id="Layer_1" enable-background="new 0 0 512 512" height="512" viewBox="0 0 512 512" width="512" xmlns="http://www.w3.org/2000/svg"><g><path d="m441.462 427.091c37.097-42.938 59.537-98.892 59.537-160.089 0-135.309-109.69-244.999-244.999-244.999s-244.999 109.689-244.999 244.998c0 61.197 22.44 117.151 59.537 160.089h370.924z" fill="#ffdd40"/><g><path d="m159.243 64.431c-.007 3.014-1.676 5.806-4.386 7.125-35.934 17.481-16.56 101.73-16.56 101.73 3.609.241 9.452 1.702 12.269 3.067.69-4.293 1.816-8.52 3.406-12.605 1.212-3.113 2.727-6.258 4.621-9.229 3.286-5.155 4.783-11.237 4.336-17.317-1.292-17.576-2.736-50.142 20.464-60.581 19.654-8.844 43.764-3.723 59.139 1.39 9.985 3.32 20.801 3.32 30.786 0 15.375-5.113 39.484-10.234 59.139-1.39 23.134 10.409 21.752 42.808 20.475 60.431-.444 6.127 1.013 12.272 4.324 17.467 1.955 3.067 3.506 6.319 4.738 9.53 1.53 3.993 2.619 8.117 3.291 12.305 3.551-1.72 10.693-3.594 15.034-2.98.532-18.422 2.232-38.281 2.232-38.281 32.74-160.348-223.094-170.074-223.308-70.662z" fill="#41416b"/></g><path d="m247.695.168c-47.191 2.098-88.366 24.407-88.452 64.263-.007 3.014-1.676 5.806-4.385 7.125-35.934 17.48-16.56 101.729-16.56 101.729 3.609.241 9.452 1.702 12.269 3.067.69-4.293 1.816-8.52 3.406-12.605 1.212-3.113 2.727-6.258 4.62-9.229 3.286-5.155 4.783-11.237 4.336-17.317-1.291-17.576-2.736-50.142 20.464-60.581 14.058-6.326 30.394-5.506 44.184-2.656v-2.066c.001-.001-25.396-47.485 20.118-71.73z" fill="#35355e"/><path d="m386.934 174.614c-5.38-4.931-16.098-2.431-20.732.588 1.015 6.322 1.073 12.789.196 19.176l-5.469 39.828c0 3.211-.101 6.36-.287 9.455 13.334 4.022 19.958-7.949 21.074-16.164.48-3.536 1.266-7.022 2.355-10.423 3.547-11.079 16.343-30.106 2.863-42.46z" fill="#fcad6d"/><g><path d="m376.807 212.297c-4.949 0-9.32-2.425-12.026-6.141l-3.852 28.049c0 3.211-.101 6.36-.287 9.455 13.335 4.022 19.958-7.949 21.074-16.164.48-3.536 1.266-7.022 2.355-10.423.918-2.866 2.455-6.267 3.996-9.945-2.73 3.161-6.757 5.169-11.26 5.169z" fill="#fd995b"/></g><path d="m281.788 453.188c40.397-24.241 50.371-63.76 52.83-82.684-5.592-13.112-7.378-29.188-7.804-41.556-6.958 8.105-14.261 14.884-21.239 20.302-13.595 10.557-30.372 16.291-47.65 16.291s-34.055-5.734-47.65-16.291c-6.978-5.418-14.281-12.198-21.239-20.303-.386 11.202-1.888 25.448-6.322 37.778 1.596 16.887 9.93 60.463 53.257 86.463 3.651 2.191 5.149 6.354 4.248 10.086 4.25 2.286 10.198 5.835 15.781 10.379 9.169-7.464 19.331-12.247 21.311-13.147.193-2.873 1.715-5.661 4.477-7.318z" fill="#fcad6d"/><path d="m230.369 449.573c20.921-24.762 27.725-59.954 29.826-84.078-.756.022-1.511.047-2.27.047-17.278 0-34.055-5.734-47.65-16.292-6.978-5.418-14.281-12.198-21.239-20.303-.386 11.203-1.888 25.448-6.322 37.778 1.525 16.129 9.22 56.593 47.655 82.848z" fill="#fd995b"/><path d="m148.742 175.963-.001.001z" fill="#41416b"/><path d="m128.918 174.614c5.38-4.931 16.098-2.431 20.732.588-1.015 6.322-1.073 12.789-.196 19.176l5.469 39.828c0 3.211.101 6.36.287 9.455-13.334 4.022-19.958-7.949-21.074-16.164-.48-3.536-1.266-7.022-2.355-10.423-3.548-11.079-16.344-30.106-2.863-42.46z" fill="#fcad6d"/><path d="m364.061 164.047c-1.231-3.211-2.782-6.463-4.737-9.53-3.312-5.195-4.768-11.34-4.324-17.467 1.277-17.622.592-52.088-22.542-62.497-19.654-8.843-43.762-3.723-59.136 1.389-9.985 3.32-20.806 3.32-30.791 0-15.375-5.113-39.483-10.233-59.136-1.389-23.2 10.439-23.822 45.072-22.53 62.648.446 6.08-1.05 12.162-4.336 17.317-1.894 2.971-3.409 6.116-4.621 9.229-3.931 10.098-5.077 21.049-3.604 31.772l5.47 39.837c0 57.271 30.572 96.198 56.577 116.392 13.574 10.541 30.325 16.266 47.576 16.266s34.003-5.725 47.577-16.266c26.005-20.194 56.577-59.121 56.577-116.392l5.469-39.828c1.456-10.618.351-21.462-3.489-31.481z" fill="#f9ba8f"/><g><path d="m139.045 212.297c4.949 0 9.32-2.425 12.027-6.141l3.852 28.049c0 3.211.101 6.36.287 9.455-13.335 4.022-19.958-7.949-21.074-16.164-.48-3.536-1.266-7.022-2.355-10.423-.918-2.866-2.454-6.267-3.996-9.945 2.728 3.161 6.755 5.169 11.259 5.169z" fill="#fd995b"/></g><g><path d="m243.051 351.748c-20.616-20.194-44.853-59.121-44.853-116.392l-4.337-39.837c-1.736-15.952 1.375-30.817 6.52-41.001 2.606-5.156 3.792-11.238 3.438-17.317-1.024-17.576-.531-52.209 17.862-62.648 1.918-1.089 3.891-1.964 5.896-2.656-13.79-2.85-30.126-3.67-44.184 2.656-23.2 10.439-23.822 45.072-22.53 62.648.446 6.08-1.05 12.162-4.336 17.317-6.579 10.322-10.393 25.211-8.225 41.001l5.47 39.837c0 57.271 30.572 96.198 56.577 116.392 17.046 13.237 38.936 18.762 60.318 15.216-10.027-2.098-19.532-7.298-27.616-15.216z" fill="#fcad6d"/></g><path d="m295.239 194.28c0-1.875.351-3.658.977-5.279-2.436 1.196-4.404 2.55-5.805 3.693-3.268 2.666-8.951 6.047-12.063 7.834-.588.338-.348 1.236.331 1.236h.307c2.887 0 5.759.45 8.501 1.354 4.756 1.566 9.307 2.346 13.516 2.603-3.459-2.372-5.764-6.607-5.764-11.441z" fill="#fff5ee"/><path d="m333.941 197.212c-5.682-5.331-11.145-8.407-16.197-9.965 1.136 2.047 1.793 4.454 1.793 7.033 0 4.214-1.753 7.971-4.492 10.438 4.135-.855 7.364-2.043 9.363-2.954 4.101-1.867 7.202-2.627 9.046-2.935.768-.129 1.054-1.084.487-1.617z" fill="#fff5ee"/><path d="m295.452 189.388c-.693 1.583-1.079 3.33-1.079 5.168 0 4.758 2.576 8.911 6.408 11.149 5.526.36 10.469-.183 14.518-1.041 2.976-2.364 4.886-6.012 4.886-10.108 0-2.683-.819-5.175-2.221-7.24-9.256-2.927-17.148-.742-22.512 2.072z" fill="#41416b"/><circle cx="307.146" cy="195.367" fill="#35355e" r="4.947"/><path d="m344.873 178.891c-.74-4.86-3.684-16.155-15.175-18.766-11.603-2.637-36.071 2.334-45.976 4.573-2.639.596-4.73 2.604-5.438 5.215l-2.041 7.526c-.173.639.416 1.223 1.053 1.044 7.51-2.107 42.091-11.458 52.626-8.079 8.033 2.577 12.16 6.593 13.983 8.91.346.439 1.053.131.968-.423z" fill="#41416b"/><path d="m223.247 194.28c0-1.875-.351-3.658-.977-5.279 2.437 1.196 4.404 2.55 5.805 3.693 3.268 2.666 8.951 6.047 12.062 7.834.589.338.348 1.236-.331 1.236h-.306c-2.887 0-5.759.45-8.501 1.354-4.756 1.566-9.307 2.346-13.516 2.603 3.458-2.372 5.764-6.607 5.764-11.441z" fill="#fff5ee"/><path d="m184.545 197.212c5.683-5.331 11.145-8.407 16.197-9.965-1.136 2.047-1.793 4.454-1.793 7.033 0 4.214 1.753 7.971 4.492 10.438-4.135-.855-7.364-2.043-9.363-2.954-4.101-1.867-7.202-2.627-9.047-2.935-.767-.129-1.054-1.084-.486-1.617z" fill="#fff5ee"/><path d="m223.033 189.388c.693 1.583 1.08 3.33 1.08 5.168 0 4.758-2.576 8.911-6.408 11.149-5.526.36-10.469-.183-14.519-1.041-2.976-2.364-4.886-6.012-4.886-10.108 0-2.683.82-5.175 2.221-7.24 9.257-2.927 17.149-.742 22.512 2.072z" fill="#41416b"/><circle cx="211.339" cy="195.367" fill="#35355e" r="4.947"/><path d="m173.612 178.891c.74-4.86 3.684-16.155 15.175-18.766 11.603-2.637 36.071 2.334 45.976 4.573 2.639.596 4.73 2.604 5.438 5.215l2.041 7.526c.173.639-.415 1.223-1.053 1.044-7.51-2.107-42.091-11.458-52.626-8.079-8.033 2.577-12.16 6.593-13.983 8.91-.345.439-1.052.131-.968-.423z" fill="#41416b"/><path d="m288.229 294.353-11.046 4.356c-1.242.49-2.615.546-3.893.161l-12.73-3.839-12.729 3.839c-1.279.385-2.651.329-3.893-.161l-11.046-4.356c-3.052-1.203-4.55-4.653-3.347-7.705 1.2-3.043 4.643-4.553 7.704-3.347l9.128 3.599 12.415-3.744c1.203-.376 2.457-.349 3.541.001l12.413 3.743 9.128-3.599c3.046-1.199 6.497.288 7.705 3.347 1.201 3.053-.298 6.502-3.35 7.705z" fill="#fcad6d"/><path d="m264.73 308.623h-7.624c-3.281 0-5.94 2.659-5.94 5.94s2.659 5.94 5.94 5.94h7.624c3.281 0 5.94-2.659 5.94-5.94 0-3.28-2.66-5.94-5.94-5.94z" fill="#fcad6d"/><g><path d="m303.016 161.022c-7.696 1.164-14.917 2.686-19.293 3.675-2.639.597-4.73 2.604-5.439 5.215l-2.041 7.526c-.173.639.415 1.223 1.053 1.044 4.164-1.168 16.649-4.561 28.745-6.779-4.975-.959-6.798-7.207-3.025-10.681z" fill="#35355e"/></g><g><path d="m208.438 160.093c-7.469-.833-14.721-1.088-19.65.032-11.492 2.612-14.435 13.907-15.175 18.766-.084.553.623.862.969.422 1.823-2.317 5.95-6.333 13.983-8.91 4.009-1.286 11.503-.726 19.66.575-4.244-2.462-4.108-8.603.213-10.885z" fill="#35355e"/></g><path d="m262.226 258.203c-1.091.221-2.241.221-3.332 0-48.012-9.723-52.465 21.701-51.756 37.722.121 2.726 3.965 3.918 6.16 1.953 7.318-6.548 18.199-7.053 31.605-10.304 9.636-2.337 13.427-6.532 14.902-9.738.27-.587 1.239-.587 1.509 0 1.475 3.206 5.267 7.401 14.902 9.738 13.407 3.251 24.288 3.756 31.605 10.304 2.195 1.964 6.04.773 6.16-1.953.71-16.021-3.743-47.445-51.755-37.722z" fill="#41416b"/><path d="m240.634 253.465 4.529-.953c8.413 8.311 22.395 8.297 30.795 0l4.529.953c3.254.682 6.458-1.399 7.144-4.66.686-3.26-1.399-6.458-4.659-7.145l-8.125-1.711c-2.647-.557-5.227.505-6.476 2.9-3.286 5.082-12.33 5.089-15.62 0-1.249-2.394-3.831-3.455-6.476-2.9l-8.125 1.711c-3.26.686-5.346 3.885-4.66 7.145.684 3.259 3.885 5.342 7.144 4.66z" fill="#fcad6d"/><path d="m235.317 457.139-82.949-67.857c-23.294 6.76-45.065 16.281-66.536 28.388-6.941 3.914-11.362 6.741-16.139 8.42 44.936 52.574 111.724 85.91 186.307 85.91 5.013 0 9.985-.169 14.923-.466 0-6.186 0-12.153 0-17.198.001-21.698-35.606-37.197-35.606-37.197z" fill="#00adf4"/><path d="m141.068 483.401 34.121-22.946c9.646-21.103 20.888-27.431 28.754-28.98l-51.575-42.191c-23.294 6.76-45.065 16.281-66.536 28.388-6.941 3.914-11.362 6.741-16.139 8.42 19.908 23.29 44.111 42.795 71.375 57.309z" fill="#059ae5"/><path d="m256 512c74.583 0 141.371-33.336 186.307-85.909-4.777-1.679-9.198-4.506-16.139-8.42-21.472-12.108-43.243-21.628-66.536-28.388l-82.949 67.857s-35.606 15.499-35.606 37.197v17.198c4.938.296 9.91.465 14.923.465z" fill="#26c6f7"/><path d="m363.899 385.792-26.117-21.893c-1.951-1.636-4.926-.398-5.151 2.138-1.414 15.918-9.179 58.786-51.586 84.233-5.185 3.111-5.894 10.334-1.339 14.312l25.75 22.49c4.664 4.073 11.681 3.816 16.042-.58 13.79-13.901 40.773-46.527 45.587-92.868.309-2.975-.894-5.912-3.186-7.832z" fill="#49dafc"/><path d="m153.86 385.792 26.117-21.893c1.951-1.636 4.926-.398 5.151 2.138 1.414 15.918 9.179 58.786 51.586 84.233 5.185 3.111 5.894 10.334 1.34 14.312l-25.75 22.49c-4.664 4.073-11.681 3.816-16.042-.58-13.79-13.901-40.773-46.527-45.587-92.868-.309-2.975.894-5.912 3.185-7.832z" fill="#26c6f7"/><path d="m213.846 431.835.001-.004c-22.584-24.236-27.61-53.307-28.719-65.794-.225-2.536-3.2-3.773-5.151-2.138l-26.117 21.893c-2.291 1.92-3.494 4.857-3.186 7.831 2.849 27.429 13.465 50.05 24.515 66.831 16.882-36.931 38.657-28.619 38.657-28.619z" fill="#00adf4"/><path d="m238.436 256.508c-28.882 1.975-31.889 26.052-31.298 39.417.121 2.726 3.965 3.918 6.16 1.953 7.318-6.548 18.199-7.053 31.606-10.304-19.102-13.381-6.489-31.037-6.468-31.066z" fill="#35355e"/></g></svg>