<svg height="512pt" viewBox="0 0 512 512" width="512pt" xmlns="http://www.w3.org/2000/svg"><path d="m512 256c0 141.386719-114.613281 256-256 256-6.605469 0-13.144531-.25-19.625-.742188h-.007812c-2.414063-.1875-4.816407-.394531-7.210938-.648437-74.199219-7.730469-138.972656-47.15625-180.546875-104.5-26.980469-37.199219-44.1875-81.953125-47.867187-130.476563-.492188-6.476562-.742188-13.027343-.742188-19.632812 0-141.386719 114.613281-256 256-256 12.558594 0 24.898438.898438 36.96875 2.652344 48.441406 7.003906 92.484375 27.566406 128.175781 57.730468 46.675781 39.445313 79.046875 95.304688 88.203125 158.667969 1.753906 12.058594 2.652344 24.398438 2.652344 36.949219zm0 0" fill="#55d8a9"/><path d="m509.347656 219.050781c-5.75 33.730469-20.804687 66.257813-45.257812 93.449219-50.394532 56.078125-103.621094 109.304688-159.691406 159.699219-20.28125 18.234375-43.53125 31.242187-68.03125 39.058593-77.207032-5.851562-144.84375-45.953124-187.757813-105.148437-26.980469-37.195313-44.191406-81.949219-47.867187-130.476563 7.816406-24.5 20.824218-47.75 39.058593-68.03125 50.40625-56.070312 103.632813-109.296874 159.691407-159.703124 27.199218-24.449219 59.726562-39.507813 93.476562-45.246094 57.4375-9.769532 118.398438 7.472656 162.554688 51.367187l2.453124 2.457031c9.113282 9.175782 17.085938 19.070313 23.886719 29.507813 26.007813 39.820313 35.226563 87.550781 27.484375 133.066406zm0 0" fill="#1285a0"/><path d="m509.347656 219.050781c-5.75 33.730469-20.804687 66.257813-45.257812 93.449219-26.058594 29.003906-52.890625 57.257812-80.488282 84.730469l-.007812.007812c-13.394531 13.363281-26.992188 26.550781-40.75 39.550781h-.011719c-12.652343 11.953126-25.464843 23.757813-38.433593 35.410157-1.074219.972656-2.160157 1.921875-3.269532 2.863281-19.496094 16.738281-41.566406 28.796875-64.761718 36.195312-77.207032-5.851562-144.84375-45.953124-187.757813-105.148437-2.851563-29.769531 1.453125-60.121094 12.9375-88.292969l.007813-.011718c6.292968-15.472657 14.757812-30.277344 25.402343-43.96875 2.757813-3.542969 5.652344-7 8.695313-10.386719 13.039062-14.5 26.265625-28.828125 39.683594-42.953125 9.476562-9.980469 19.046874-19.863282 28.722656-29.65625l.011718-.007813c29.539063-29.917969 59.964844-58.921875 91.269532-87.082031 46.542968-41.839844 108.683594-56.183594 165.804687-43.363281 21.296875 4.761719 41.890625 13.300781 60.722657 25.597656 26.003906 39.820313 35.222656 87.550781 27.480468 133.066406zm0 0" fill="#33adc1"/><path d="m446.6875 65.316406c-46-46-120.578125-46-166.574219 0l-55.847656 55.84375c-45.996094 46-45.996094 120.574219 0 166.574219 46 45.996094 120.578125 45.996094 166.574219 0l55.84375-55.847656c46-45.996094 46-120.574219.003906-166.570313zm0 0" fill="#1285a0"/><path d="m261.289062 113.789062c-11.554687 11.554688-29.574218 12.695313-42.402343 3.421876-1.40625-1.011719-2.75-2.152344-4.019531-3.421876-12.820313-12.820312-12.820313-33.597656 0-46.417968 12.824218-12.820313 33.597656-12.820313 46.421874 0 1.265626 1.269531 2.40625 2.613281 3.417969 4.015625 9.273438 12.828125 8.132813 30.847656-3.417969 42.402343zm0 0" fill="#f6ba97"/><path d="m261.289062 113.789062c-11.554687 11.554688-29.574218 12.695313-42.402343 3.421876 5.289062-9.308594 11.898437-18.0625 19.828125-25.992188 7.929687-7.929688 16.683594-14.539062 25.992187-19.832031 9.273438 12.828125 8.132813 30.847656-3.417969 42.402343zm0 0" fill="#eaa27f"/><path d="m246.371094 82.285156c-4.582032-4.582031-12.007813-4.582031-16.589844 0-4.582031 4.582032-4.582031 12.011719 0 16.589844 4.582031 4.582031 12.007812 4.582031 16.589844 0 4.582031-4.578125 4.582031-12.007812 0-16.589844zm0 0" fill="#eaa27f"/><path d="m398.210938 250.710938c-11.554688 11.554687-12.695313 29.574218-3.421876 42.40625 1.011719 1.402343 2.152344 2.746093 3.421876 4.015624 12.820312 12.820313 33.597656 12.820313 46.417968 0 12.820313-12.824218 12.820313-33.597656 0-46.421874-1.265625-1.265626-2.613281-2.40625-4.015625-3.417969-12.828125-9.273438-30.847656-8.132813-42.402343 3.417969zm0 0" fill="#f6ba97"/><path d="m398.210938 250.710938c-11.554688 11.554687-12.695313 29.574218-3.421876 42.40625 9.308594-5.292969 18.0625-11.902344 25.992188-19.832032 7.929688-7.929687 14.542969-16.683594 19.832031-25.992187-12.828125-9.273438-30.847656-8.132813-42.402343 3.417969zm0 0" fill="#eaa27f"/><path d="m435.738281 242.351562-31.625 31.625c-41.324219 41.324219-105.796875 45.417969-151.6875 12.25-.152343-.109374-.316406-.230468-.472656-.339843-4.875-3.53125-9.523437-7.515625-13.925781-11.917969-45.859375-45.859375-45.859375-120.21875 0-166.082031l31.621094-31.621094c9.65625-9.65625 20.585937-17.289063 32.253906-22.867187 43.671875-20.960938 97.636718-13.335938 133.835937 22.859374l.003907.007813c4.398437 4.394531 8.378906 9.058594 11.925781 13.933594 33.515625 45.929687 29.535156 110.6875-11.929688 152.152343zm0 0" fill="#eaa27f"/><path d="m429.710938 265.628906c-4.582032-4.582031-12.007813-4.582031-16.589844 0-4.582032 4.578125-4.582032 12.007813 0 16.589844 4.582031 4.582031 12.007812 4.582031 16.589844 0 4.582031-4.582031 4.582031-12.011719 0-16.589844zm0 0" fill="#eaa27f"/><path d="m435.738281 242.351562-31.625 31.625c-41.324219 41.324219-105.796875 45.417969-151.6875 12.25-.152343-.109374-.316406-.230468-.472656-.339843-33.511719-45.925781-29.523437-110.679688 11.933594-152.136719l31.621093-31.625c41.464844-41.464844 106.226563-45.445312 152.160157-11.925781 33.515625 45.929687 29.535156 110.6875-11.929688 152.152343zm0 0" fill="#f6ba97"/><g fill="#eaa27f"><path d="m369.28125 239.316406c-5.976562-5.976562-15.660156-5.976562-21.636719 0-5.976562 5.972656-5.976562 15.660156 0 21.636719 5.976563 5.976563 15.660157 5.976563 21.636719 0s5.976562-15.664063 0-21.636719zm0 0"/><path d="m272.683594 142.71875c-5.972656-5.976562-15.660156-5.976562-21.636719 0-5.972656 5.972656-5.972656 15.660156 0 21.636719 5.976563 5.972656 15.664063 5.972656 21.636719 0 5.976562-5.976563 5.976562-15.664063 0-21.636719zm0 0"/><path d="m389.539062 226.097656c10.824219-10.824218 10.824219-28.371094 0-39.195312-10.824218-10.824219-28.371093-10.824219-39.195312 0"/><path d="m325.109375 161.664062c10.820313-10.820312 10.820313-28.371093 0-39.191406-10.824219-10.824218-28.375-10.824218-39.195313 0"/><path d="m319.214844 212.5-19.703125-19.707031c-2.347657-2.347657-2.347657-6.152344 0-8.5 2.347656-2.347657 6.152343-2.347657 8.5 0l19.703125 19.707031c2.347656 2.347656 2.347656 6.152344 0 8.5s-6.152344 2.347656-8.5 0zm0 0"/></g><path d="m315.539062 132.039062c-7.503906-7.5-19.667968-7.5-27.171874 0-7.503907 7.503907-7.503907 19.667969 0 27.171876 7.503906 7.503906 19.667968 7.503906 27.171874 0 7.5-7.503907 7.5-19.667969 0-27.171876zm0 0" fill="#067587"/><path d="m315.542969 159.207031c-6.453125 6.453125-16.367188 7.355469-23.78125 2.703125-4.660157-7.421875-3.757813-17.332031 2.695312-23.785156 6.457031-6.453125 16.367188-7.355469 23.78125-2.691406 4.660157 7.410156 3.757813 17.320312-2.695312 23.773437zm0 0" fill="#1285a0"/><path d="m315.164062 142.402344c-3.214843-3.214844-8.425781-3.214844-11.640624 0-3.214844 3.214844-3.214844 8.425781 0 11.640625 3.214843 3.214843 8.425781 3.214843 11.640624 0 3.214844-3.214844 3.214844-8.425781 0-11.640625zm0 0" fill="#fff"/><path d="m379.972656 223.636719c-6.457031 6.453125-16.367187 7.355469-23.78125 2.703125-1.203125-.746094-2.34375-1.648438-3.390625-2.695313-7.503906-7.503906-7.503906-19.675781 0-27.179687 7.5-7.5 19.667969-7.492188 27.171875.007812 1.046875 1.050782 1.945313 2.191406 2.695313 3.390625 4.660156 7.410157 3.757812 17.320313-2.695313 23.773438zm0 0" fill="#067587"/><path d="m379.972656 223.636719c-6.457031 6.453125-16.367187 7.355469-23.78125 2.703125-4.660156-7.421875-3.757812-17.332032 2.695313-23.785156 6.453125-6.453126 16.367187-7.355469 23.78125-2.691407 4.660156 7.410157 3.757812 17.320313-2.695313 23.773438zm0 0" fill="#1285a0"/><path d="m379.59375 206.832031c-3.214844-3.214843-8.425781-3.214843-11.640625 0-3.214844 3.214844-3.214844 8.425781 0 11.640625 3.214844 3.21875 8.425781 3.21875 11.640625 0 3.214844-3.214844 3.214844-8.425781 0-11.640625zm0 0" fill="#fff"/><path d="m318.746094 252.183594c-.890625 7.253906-11.433594 11.796875-22.128906 7.078125-19.570313-8.625-35.25-24.304688-43.875-43.875-2.304688-5.199219-2.433594-10.691407-.960938-14.765625 1.464844-4.113282 4.433594-6.757813 8.039062-7.367188 2.453126-.421875 4.894532.078125 7.132813 1.078125 4.378906 2.003907 8.003906 5.671875 10.085937 10.34375 5.953126 13.507813 16.777344 24.335938 30.289063 30.289063 3.5625 1.574218 6.472656 4.03125 8.601563 7.035156.683593.96875 1.265624 1.988281 1.742187 3.046875 1 2.242187 1.5 4.683594 1.074219 7.136719zm0 0" fill="#ea2f69"/><path d="m317.671875 245.050781c-3.480469 3.246094-9.742187 4.335938-15.5625 1.753907-16.460937-7.257813-29.652344-20.449219-36.910156-36.914063-1.9375-4.375-1.824219-9.078125-.207031-12.566406.515624-1.128907 1.179687-2.128907 1.960937-2.992188 4.378906 2.003907 8.003906 5.667969 10.085937 10.339844 5.953126 13.511719 16.777344 24.339844 30.289063 30.292969 3.5625 1.574218 6.472656 4.03125 8.601563 7.035156.683593.96875 1.265624 1.988281 1.742187 3.050781zm0 0" fill="#ff648d"/><path d="m443.9375 163.664062c-14.386719 4.5-30.722656 1.050782-42.121094-10.347656-16.351562-16.351562-16.351562-42.863281 0-59.214844 11.398438-11.398437 27.734375-14.847656 42.121094-10.351562-6.25 1.953125-12.140625 5.402344-17.089844 10.351562-16.351562 16.351563-16.351562 42.863282 0 59.214844 4.949219 4.949219 10.839844 8.398438 17.089844 10.347656zm0 0" fill="#2f373b"/><path d="m383.59375 397.238281c-13.402344 13.359375-26.988281 26.546875-40.753906 39.542969l-.007813.007812c-13.734375.464844-27.351562-.855468-40.777343-4.011718-27.308594-6.398438-53.109376-20.082032-76.675782-40.667969-3.734375-3.257813-7.398437-6.683594-10.972656-10.261719-27.953125-27.949218-50.917969-65.21875-65.433594-106.480468-6.445312-18.324219-11.007812-36.796876-13.640625-54.867188-3.996093-27.375-3.566406-53.839844 1.464844-77.492188l30.660156 6.515626c-2.730469 12.855468-3.855469 26.761718-3.390625 41.308593l-.007812.007813c.738281 23.613281 5.625 48.917968 14.488281 74.128906 14.601563 41.523438 38.554687 78.289062 67.453125 103.535156 28.820312 25.175782 76.054688 50.554688 137.59375 28.734375zm0 0" fill="#1285a0"/><path d="m301.128906 475.0625c-19.488281 16.738281-41.554687 28.796875-64.753906 36.195312h-.007812c-2.414063-.1875-4.816407-.394531-7.210938-.648437-1.847656-.355469-3.6875-.753906-5.527344-1.167969-27.207031-6.332031-52.871094-19.90625-76.308594-40.367187-3.675781-3.226563-7.292968-6.613281-10.824218-10.144531-27.855469-27.847657-50.71875-65.074219-65.109375-106.347657-4.03125-11.578125-7.3125-23.210937-9.839844-34.765625l.007813-.011718c-7.523438-34.363282-8.316407-68.082032-2.058594-97.496094l30.667968 6.519531c-3.09375 14.535156-4.136718 30.40625-3.207031 47.007813 1.242188 21.988281 5.957031 45.265624 14.03125 68.433593 14.453125 41.4375 38.234375 78.105469 66.957031 103.191407 27.992188 24.449218 73.59375 49.070312 133.183594 29.601562zm0 0" fill="#1285a0"/></svg>