<?xml version="1.0" encoding="utf-8"?>
<!-- Generator: Adobe Illustrator 23.0.3, SVG Export Plug-In . SVG Version: 6.00 Build 0)  -->
<svg version="1.1" id="Слой_1" xmlns="http://www.w3.org/2000/svg" xmlns:xlink="http://www.w3.org/1999/xlink" x="0px" y="0px"
	 viewBox="0 0 512 512" style="enable-background:new 0 0 512 512;" xml:space="preserve">
<style type="text/css">
	.st0{fill:#1285A0;}
	.st1{fill:#F6BA97;}
	.st2{fill:#EAA27F;}
	.st3{fill:#2DC188;}
	.st4{fill:#55D8A9;}
	.st5{fill:#5C5560;}
	.st6{fill:#EA2F69;}
	.st7{fill:#FF648D;}
	.st8{fill:#FFFFFF;}
	.st9{fill:#C1DCE5;}
	.st10{fill:#9DBDC6;}
</style>
<path class="st0" d="M512,256c0,88.4-44.8,166.3-112.9,212.3C358.2,495.9,309,512,256,512c-27.1,0-53.2-4.2-77.7-12
	c-23.4-7.4-45.4-18.2-65.4-31.7C44.8,422.3,0,344.4,0,256C0,114.6,114.6,0,256,0S512,114.6,512,256z"/>
<path class="st1" d="M138,183.2c0,19.9-14.5,36.4-33.6,39.5c-2.1,0.3-4.2,0.5-6.4,0.5c-22.1,0-40-17.9-40-40s17.9-40,40-40
	c2.2,0,4.3,0.2,6.4,0.5C123.5,146.8,138,163.3,138,183.2z"/>
<path class="st2" d="M138,183.2c0,19.9-14.5,36.4-33.6,39.5c-3.5-12.6-5.3-25.8-5.3-39.5s1.8-26.9,5.3-39.5
	C123.5,146.8,138,163.3,138,183.2z"/>
<path class="st2" d="M112.3,183.2c0,7.9-6.4,14.3-14.3,14.3c-7.9,0-14.3-6.4-14.3-14.3s6.4-14.3,14.3-14.3
	C105.9,168.9,112.3,175.3,112.3,183.2z"/>
<path class="st1" d="M374,183.2c0,19.9,14.5,36.4,33.6,39.5c2.1,0.3,4.2,0.5,6.4,0.5c22.1,0,40-17.9,40-40s-17.9-40-40-40
	c-2.2,0-4.3,0.2-6.4,0.5C388.5,146.8,374,163.3,374,183.2z"/>
<path class="st2" d="M374,183.2c0,19.9,14.5,36.4,33.6,39.5c3.5-12.6,5.3-25.8,5.3-39.5s-1.8-26.9-5.3-39.5
	C388.5,146.8,374,163.3,374,183.2z"/>
<path class="st3" d="M399.1,448.9v19.4C358.2,495.9,309,512,256,512c-53,0-102.2-16.1-143.1-43.7v-19.4c0-16.6,2.8-32.6,8.1-47.5
	c9.8-27.9,28-51.8,51.5-68.7c23.5-16.9,52.3-26.9,83.5-26.9h0c7.6,0,15,0.6,22.3,1.7c3.5,0.5,7,1.2,10.4,2
	c18.6,4.3,35.8,12.3,50.8,23.1C375.6,358.6,399.1,401,399.1,448.9z"/>
<path class="st4" d="M399.1,448.9v19.4C358.2,495.9,309,512,256,512c-27.1,0-53.2-4.2-77.7-12v-51.1c0-16.6,2.8-32.6,8.1-47.5
	c9.8-27.9,28-51.8,51.5-68.7c15-10.8,32.2-18.8,50.8-23.1c18.6,4.3,35.8,12.3,50.8,23.1C375.6,358.6,399.1,401,399.1,448.9z"/>
<path class="st3" d="M339.5,332.7c-7.7,33.7-35.3,59.8-69.8,65.3c-0.1,0-0.3,0-0.4,0.1c-4.3,0.7-8.8,1-13.3,1
	c-40.7,0-74.8-28.4-83.5-66.4c23.5-16.9,52.3-26.9,83.5-26.9h0c7.6,0,15,0.6,22.3,1.7C300.9,311,321.7,319.9,339.5,332.7z"/>
<g>
	<path class="st2" d="M327.1,283.6v27.1c0,35.4-25.8,64.7-59.7,70.2c-0.1,0-0.2,0-0.3,0.1c-3.6,0.6-7.3,0.9-11.1,0.9
		c-39.3,0-71.1-31.8-71.1-71.1v-27.1c0-8.3,1.4-16.2,4-23.6c9.7-27.7,36.1-47.5,67.1-47.5h0c3.8,0,7.5,0.3,11.1,0.9
		C301.1,218.6,327.1,248.1,327.1,283.6z"/>
	<path class="st2" d="M399.1,143.7v54.5c0,71.2-52,130.3-120.1,141.2c-0.2,0-0.5,0.1-0.7,0.1c-7.2,1.2-14.7,1.7-22.3,1.7
		c-79,0-143.1-64.1-143.1-143.1v-54.5c0-16.6,2.8-32.6,8.1-47.5c19.6-55.7,72.6-95.6,135-95.6h0c7.6,0,15,0.6,22.3,1.7
		C346.7,13,399.1,72.3,399.1,143.7z"/>
	<path class="st2" d="M428.2,183.2c0,7.9-6.4,14.3-14.3,14.3s-14.3-6.4-14.3-14.3s6.4-14.3,14.3-14.3S428.2,175.3,428.2,183.2z"/>
</g>
<path class="st1" d="M399.1,143.7v54.5c0,71.2-52,130.3-120.1,141.2c-0.2,0-0.5,0.1-0.7,0.1c-68.4-10.7-120.8-69.9-120.8-141.3
	v-54.5c0-71.4,52.4-130.7,120.8-141.4C346.7,13,399.1,72.3,399.1,143.7z"/>
<path class="st2" d="M357.9,217c0,10.3-8.3,18.6-18.6,18.6s-18.6-8.3-18.6-18.6s8.3-18.6,18.6-18.6S357.9,206.7,357.9,217z"/>
<path class="st2" d="M191.4,217c0,10.3-8.3,18.6-18.6,18.6c-10.3,0-18.6-8.3-18.6-18.6s8.3-18.6,18.6-18.6
	C183.1,198.3,191.4,206.7,191.4,217z"/>
<path class="st2" d="M273,218.4h-34c-4,0-7.3-3.3-7.3-7.3c0-4,3.3-7.3,7.3-7.3h34c4,0,7.3,3.3,7.3,7.3
	C280.3,215.1,277,218.4,273,218.4z"/>
<path class="st5" d="M338.4,68.8c-8.5,16.3-25.6,27.4-45.2,27.4c-28.2,0-51-22.8-51-51c0-19.6,11.1-36.7,27.4-45.2
	c-3.7,7.1-5.8,15.1-5.8,23.6c0,28.2,22.8,51,51,51C323.2,74.7,331.3,72.6,338.4,68.8z"/>
<path class="st6" d="M300.9,267.7c0,3.1-0.3,5.7-1,7.9c-4.2,14.5-21.4,10.5-41.9,10.5s-37.8,4-41.9-10.5c-0.6-2.2-1-4.8-1-7.9
	c0-23.7,19.2-42.9,42.9-42.9c3.1,0,6.2,0.3,9.1,1c6.3,1.4,12.1,4.1,17,7.9C294.4,241.6,300.9,253.9,300.9,267.7z"/>
<path class="st7" d="M300,275.7c-4.2,14.5-21.4,10.5-41.9,10.5s-37.8,4-41.9-10.5c9.8-12.3,25-20.2,41.9-20.2
	c3.9,0,7.8,0.4,11.4,1.2c7.9,1.7,15.1,5.2,21.3,9.9C294.2,269.3,297.3,272.3,300,275.7z"/>
<path class="st2" d="M235,185.3c-7.2-8.4-19.1-13.9-32.5-13.9c-13.5,0-25.4,5.5-32.5,13.9c0.5-17.5,14.9-31.6,32.5-31.6
	S234.5,167.8,235,185.3z"/>
<path class="st2" d="M342.1,185.3c-7.2-8.4-19.1-13.9-32.5-13.9s-25.4,5.5-32.5,13.9c0.5-17.5,14.9-31.6,32.5-31.6
	S341.5,167.8,342.1,185.3z"/>
<path class="st8" d="M284.2,233.7c-0.8,2.7-1.7,5.4-2.7,8c-1.1,2.9-4.1,4.7-7.2,4.1c-2.2-0.4-4.3-1-6.3-1.9
	c-2.9-1.2-4.5-4.3-3.8-7.4c0.8-3.7,1.8-7.3,2.9-10.8C273.5,227.2,279.3,229.9,284.2,233.7z"/>
<path class="st9" d="M366.2,252.7c0.5,0.5,1.1,1.1,1.6,1.6c24.2,22.6,59.5-12.7,36.9-36.9c-0.5-0.5-1-1.1-1.6-1.6
	c-14.9-14.9-35.4-20.9-54.8-17.8C345.4,217.3,351.3,237.8,366.2,252.7z"/>
<path class="st10" d="M403.8,253.4c-9,9-23.9,12.2-36,0.9c-0.6-0.5-1.1-1-1.6-1.6c-14.9-14.9-20.9-35.4-17.8-54.8
	c3.9,12.5,14.3,28.5,29.2,43.4c0.5,0.5,1.1,1.1,1.6,1.6C391,254.5,400.3,256.9,403.8,253.4z"/>
<path class="st8" d="M395.9,216.9c-4.2-4.2-9.2-6-11.1-4c-2,2-0.2,7,4,11.1s9.2,6,11.1,4C401.9,226.1,400.1,221.1,395.9,216.9z"/>
<path class="st9" d="M108.8,215.8c-0.5,0.5-1.1,1.1-1.6,1.6c-22.6,24.2,12.7,59.4,36.9,36.9c0.5-0.5,1.1-1,1.6-1.6
	c14.9-14.9,20.9-35.4,17.8-54.8C144.3,195,123.8,200.9,108.8,215.8z"/>
<path class="st10" d="M108.2,253.4c-9-9-12.2-23.9-0.9-36c0.5-0.5,1-1.1,1.6-1.6c14.9-14.9,35.4-20.9,54.8-17.8
	c-12.5,3.9-28.5,14.3-43.4,29.2c-0.5,0.5-1.1,1.1-1.6,1.6C107.1,240.6,104.7,249.9,108.2,253.4z"/>
<path class="st8" d="M148.7,234.4c-2-2-7-0.2-11.1,4s-6,9.2-4,11.1c2,2,7,0.2,11.1-4S150.6,236.3,148.7,234.4z"/>
</svg>
