<?xml version="1.0" encoding="utf-8"?>
<!-- Generator: Adobe Illustrator 23.0.3, SVG Export Plug-In . SVG Version: 6.00 Build 0)  -->
<svg version="1.1" id="Слой_1" xmlns="http://www.w3.org/2000/svg" xmlns:xlink="http://www.w3.org/1999/xlink" x="0px" y="0px"
	 viewBox="0 0 512 512" style="enable-background:new 0 0 512 512;" xml:space="preserve">
<style type="text/css">
	.st0{fill:#1DA2DD;}
	.st1{fill:#512375;}
	.st2{fill:#673389;}
	.st3{fill:#EAA27F;}
	.st4{fill:#F6BA97;}
	.st5{fill:#D88D6F;}
	.st6{fill:#2F373B;}
	.st7{fill:#FFFFFF;}
	.st8{fill:#151A1C;}
	.st9{fill:#E89F18;}
	.st10{fill:#FFE05C;}
</style>
<path class="st0" d="M512,256c0,141.4-114.6,256-256,256S0,397.4,0,256S114.6,0,256,0S512,114.6,512,256z"/>
<path class="st1" d="M382.1,449.6v29.2C344.9,499.9,301.9,512,256,512c-27,0-53.1-4.2-77.5-12c-17-5.4-33.3-12.6-48.6-21.2v-29.2
	c0-49.9,38.4-90.9,87.4-94.8c2.6-0.2,5.2-0.3,7.8-0.3h62c7.3,0,14.4,0.8,21.3,2.4C350.6,366.5,382.1,404.4,382.1,449.6z"/>
<path class="st2" d="M382.1,449.6v29.2c-22.7,12.9-47.6,22.4-74,27.9c-14.8,3.1-30,4.8-45.6,5.2c-2.2,0.1-4.3,0.1-6.5,0.1
	c-27,0-53.1-4.2-77.5-12v-50.5c0-6.7,0.7-13.3,2-19.7c2.7-13,8.1-24.9,15.5-35.4c17.2-24.3,45.6-40.1,77.6-40.1H287
	C339.5,354.4,382.1,397,382.1,449.6z"/>
<g>
	<path class="st1" d="M262.6,376.3v135.6c-2.2,0.1-4.4,0.1-6.6,0.1s-4.4,0-6.6-0.1V376.3H262.6z"/>
	<path class="st1" d="M297.8,442.3c0,6.3-5.1,11.5-11.5,11.5s-11.5-5.1-11.5-11.5s5.1-11.5,11.5-11.5S297.8,435.9,297.8,442.3z"/>
	<path class="st1" d="M297.8,478.8c0,6.3-5.1,11.5-11.5,11.5s-11.5-5.1-11.5-11.5s5.1-11.5,11.5-11.5S297.8,472.5,297.8,478.8z"/>
	<path class="st1" d="M256,393.4l-42.8,23.8l-13-60.6l26.6-15.7"/>
	<path class="st1" d="M256,393.4l42.8,23.8l13-60.6l-26.6-15.7"/>
</g>
<path class="st3" d="M289.9,317.8v41.7c0,15.3-10.1,28.1-23.9,32.4c-3.2,1-6.5,1.5-10,1.5c-18.7,0-33.9-15.2-33.9-33.9v-41.7H289.9z
	"/>
<path class="st4" d="M289.9,356.8v2.6c0,15.3-10.1,28.1-23.9,32.4c-12.5-3.8-21.9-14.7-23.6-28c2.3,0.1,4.5,0.2,6.8,0.2
	c6.4,0,12.7-0.5,18.9-1.5C275.7,361.4,283,359.4,289.9,356.8z"/>
<path class="st4" d="M162.9,249.5c0,15.7-11.5,28.7-26.5,31.2c-1.6,0.3-3.3,0.4-5.1,0.4c-17.4,0-31.6-14.1-31.6-31.6
	c0-17.4,14.1-31.6,31.6-31.6c1.7,0,3.4,0.1,5.1,0.4C151.4,220.8,162.9,233.8,162.9,249.5z"/>
<path class="st3" d="M162.9,249.5c0,15.7-11.5,28.7-26.5,31.2c-2.7-9.9-4.2-20.4-4.2-31.2c0-10.8,1.5-21.2,4.2-31.2
	C151.4,220.8,162.9,233.8,162.9,249.5z"/>
<path class="st3" d="M142.6,249.5c0,6.2-5.1,11.3-11.3,11.3s-11.3-5.1-11.3-11.3c0-6.2,5.1-11.3,11.3-11.3S142.6,243.3,142.6,249.5z
	"/>
<path class="st4" d="M349.1,249.5c0,15.7,11.5,28.7,26.5,31.2c1.6,0.3,3.3,0.4,5.1,0.4c17.4,0,31.6-14.1,31.6-31.6
	c0-17.4-14.1-31.6-31.6-31.6c-1.7,0-3.4,0.1-5.1,0.4C360.6,220.8,349.1,233.8,349.1,249.5z"/>
<path class="st3" d="M349.1,249.5c0,15.7,11.5,28.7,26.5,31.2c2.7-9.9,4.2-20.4,4.2-31.2c0-10.8-1.5-21.2-4.2-31.2
	C360.6,220.8,349.1,233.8,349.1,249.5z"/>
<path class="st3" d="M373.4,188v44.7c0,58.4-42.7,106.9-98.6,115.9c-0.2,0-0.4,0.1-0.6,0.1c-5.9,0.9-12.1,1.4-18.3,1.4
	c-64.9,0-117.4-52.6-117.4-117.4V188c0-13.7,2.3-26.8,6.6-39c16.1-45.7,59.6-78.5,110.8-78.5h0c6.2,0,12.3,0.5,18.3,1.4
	C330.5,80.8,373.4,129.4,373.4,188z"/>
<path class="st3" d="M392,249.5c0,6.2-5.1,11.3-11.3,11.3c-6.2,0-11.3-5.1-11.3-11.3c0-6.2,5.1-11.3,11.3-11.3
	C386.9,238.3,392,243.3,392,249.5z"/>
<path class="st4" d="M373.4,188v44.7c0,58.4-42.7,106.9-98.6,115.9c-0.2,0-0.4,0.1-0.6,0.1c-56.2-8.8-99.1-57.4-99.1-116V188
	c0-58.6,43-107.3,99.2-116C330.5,80.8,373.4,129.4,373.4,188z"/>
<path class="st3" d="M373.4,201.6v35.5c0,58.4-42.7,106.9-98.6,115.9c-0.2,0-0.4,0.1-0.6,0.1c-6.1,1-12.3,1.4-18.7,1.4
	c-64.9-0.2-117-53.6-117-118.5v-28.9l13.3,1.3l17.8,60.3c2.6,8.8,9.5,15.6,18.3,18.2c13.6,4,28-3.3,32.8-16.7
	c2.4-6.7,8.7-11.1,15.8-11.1h39.1c7.1,0,13.4,4.4,15.8,11.1c4.8,13.3,19.1,20.6,32.8,16.7c8.8-2.6,15.7-9.4,18.3-18.2l17.8-60.3
	L373.4,201.6z"/>
<path class="st5" d="M256,295.8c-9.8,0-19.7-2.5-28.6-7.4c-2.5-1.4-3.5-4.6-2.1-7.1c1.4-2.5,4.6-3.4,7.1-2.1
	c14.8,8.1,32.4,8.1,47.2,0c2.5-1.4,5.7-0.5,7.1,2.1c1.4,2.5,0.5,5.7-2.1,7.1C275.7,293.4,265.8,295.8,256,295.8z"/>
<path class="st5" d="M269.3,259.5h-26.6c-3.2,0-5.7-2.6-5.7-5.7s2.6-5.7,5.7-5.7h26.6c3.2,0,5.7,2.6,5.7,5.7
	C275.1,256.9,272.5,259.5,269.3,259.5z"/>
<path class="st6" d="M231,225.9c0,7.4-6,13.3-13.3,13.3s-13.3-6-13.3-13.3s6-13.3,13.3-13.3S231,218.6,231,225.9z"/>
<path class="st6" d="M307.7,225.9c0,7.4-6,13.3-13.3,13.3s-13.3-6-13.3-13.3s6-13.3,13.3-13.3S307.7,218.6,307.7,225.9z"/>
<path class="st7" d="M228.3,223.6c0,3.2-2.6,5.7-5.7,5.7s-5.7-2.6-5.7-5.7s2.6-5.7,5.7-5.7S228.3,220.4,228.3,223.6z"/>
<path class="st7" d="M305.6,223.6c0,3.2-2.6,5.7-5.7,5.7s-5.7-2.6-5.7-5.7s2.6-5.7,5.7-5.7S305.6,220.4,305.6,223.6z"/>
<path class="st8" d="M373.4,192v45.8c-12.1,0-21.9-9.8-21.9-21.9v-90.4l-157.8,47.1l-33.4-6.2V216c0,12.1-9.8,21.9-21.9,21.9V192
	c0-52.2,42.3-94.6,94.6-94.6h45.8c1.2,0,2.5,0,3.7,0.1C333.1,99.5,373.4,141,373.4,192z"/>
<path class="st9" d="M373.4,125.5v63.6H138.6v-63.6c0-39,32.4-70.6,72.5-70.6h90C341,55,373.4,86.6,373.4,125.5z"/>
<path class="st10" d="M373.4,125.5v63.6H193.3v-63.6c0-39,32.4-70.6,72.5-70.6H301C341,55,373.4,86.6,373.4,125.5z"/>
<path class="st1" d="M283.7,159.5v29.7H62.4c-8.2,0-14.8-6.6-14.8-14.8c0-4.1,1.7-7.8,4.3-10.5c2.7-2.7,6.4-4.3,10.5-4.3H283.7z"/>
<path class="st2" d="M323.9,159.5v29.7H195.7c-8.2,0-14.8-6.6-14.8-14.8c0-4.1,1.7-7.8,4.3-10.5c2.7-2.7,6.4-4.3,10.5-4.3H323.9z"/>
</svg>
