<?xml version="1.0" encoding="utf-8"?>
<!-- Generator: Adobe Illustrator 23.0.3, SVG Export Plug-In . SVG Version: 6.00 Build 0)  -->
<svg version="1.1" id="Слой_1" xmlns="http://www.w3.org/2000/svg" xmlns:xlink="http://www.w3.org/1999/xlink" x="0px" y="0px"
	 viewBox="0 0 150 51" style="enable-background:new 0 0 150 51;" xml:space="preserve">
<style type="text/css">
	.st0{fill:#F29C2B;}
	.st1{enable-background:new    ;}
	.st2{fill:#F6D04D;}
</style>
<g>
	<g>
		<g>
			<path class="st0" d="M66.2,16.3l-2.1-0.1c-0.6-1.8-2.3-3.1-4.3-3.1c-2.3,0-4.2,1.7-4.5,4l0,0c-1.1-0.2-2.1-1.9-3.2-4.9
				c-2.4,2.8-2.2,5.9-1.5,7.1c-1.5,0.2-4.4-0.7-5.6-1.4c2.2,4.9,5.3,7.3,8.4,7.9c1,0.6,2.2,0.9,3.5,0.9c0.1,0,0.3,0,0.4,0l-0.6,1.1
				l-1.3,0.4l0.1,0.3l1.3-0.4l0.6,0.6l0.2-0.2L57,27.9l0.7-1.2c0.5-0.1,1-0.2,1.4-0.3l1.4,1.7l-1.1,0.4l0.1,0.3l1.3-0.5l1.2,0.5
				l0.1-0.3L60.8,28l-1.4-1.8c2.8-1,4.8-3.7,4.9-6.8c0-0.1,1.9-0.1,1.9-0.1l-2-1.4L66.2,16.3z M61.5,17.9c-0.7,0-1.2-0.6-1.2-1.2
				s0.6-1.2,1.2-1.2c0.7,0,1.2,0.6,1.2,1.2S62.2,17.9,61.5,17.9z"/>
			<path class="st0" d="M61.5,16L61.5,16c0,0,0,0.1,0,0.2c0,0.2-0.2,0.3-0.3,0.3S61,16.4,61,16.4c0,0.1-0.1,0.2-0.1,0.3
				c0,0.3,0.3,0.6,0.6,0.6S62,17,62,16.7C62.2,16.3,61.8,16,61.5,16z"/>
			<path class="st0" d="M68.8,12.4v0.4V16c-0.1-0.3-0.4-0.4-0.6-0.4c-0.5,0-0.9,0.4-0.9,0.9s0.4,0.9,0.9,0.9s0.9-0.4,0.9-0.8l0,0
				v-3.3l2.6-0.5v2.3c-0.2-0.2-0.4-0.3-0.6-0.3c-0.5,0-0.9,0.4-0.9,0.9s0.4,0.9,0.9,0.9s0.9-0.4,0.9-0.8l0,0v-3.7l0,0v-0.6
				L68.8,12.4z M71.8,12.8l-2.6,0.5V13l2.6-0.5V12.8z"/>
			<path class="st0" d="M76.8,4.4l-2.8,0.5v0.3V8c-0.1-0.1-0.3-0.2-0.6-0.2c-0.5,0-0.8,0.4-0.8,0.8c0,0.5,0.4,0.8,0.8,0.8
				s0.8-0.3,0.8-0.7l0,0V5.8l2.3-0.4v2.1c-0.1-0.1-0.3-0.2-0.6-0.2c-0.5,0-0.8,0.4-0.8,0.8c0,0.5,0.4,0.8,0.8,0.8s0.8-0.3,0.8-0.7
				l0,0V4.9l0,0L76.8,4.4z M76.7,5.3l-2.3,0.4V5.4L76.7,5V5.3z"/>
			<path class="st0" d="M67.8,4.7L67.8,4.7V1.8l2.3-0.4v2.1c-0.1-0.1-0.3-0.2-0.6-0.2c-0.4-0.1-0.8,0.3-0.8,0.7
				c0,0.5,0.4,0.8,0.8,0.8s0.8-0.3,0.8-0.7l0,0V0.9l0,0V0.3l-2.8,0.5v0.3v2.8c-0.1-0.1-0.3-0.2-0.6-0.2c-0.5,0-0.8,0.4-0.8,0.8
				s0.4,0.8,0.8,0.8C67.5,5.4,67.8,5.1,67.8,4.7z M67.8,1.4L70.2,1v0.3l-2.3,0.3V1.4z"/>
		</g>
	</g>
	<g>
		<g class="st1">
			<path class="st0" d="M0.6,32c0-1.3,0.3-2.5,0.9-3.5c0.6-1,1.4-1.9,2.4-2.7c1-0.7,2.1-1.3,3.4-1.7c1.3-0.4,2.5-0.6,3.7-0.6
				c0.9,0,1.8,0.1,2.7,0.3c0.9,0.2,1.7,0.5,2.4,1c0.7,0.4,1.3,1,1.8,1.7s0.7,1.5,0.7,2.5c0,1-0.2,1.8-0.7,2.6
				c-0.5,0.8-1.1,1.4-1.8,1.9c-0.7,0.5-1.6,0.9-2.5,1.2c-0.9,0.3-1.9,0.4-2.8,0.4c-0.7,0-1.4-0.1-2.1-0.2S7.4,34.8,7,34.6
				s-0.8-0.3-1.1-0.5c-0.3-0.1-0.4-0.2-0.4-0.3c0-0.1,0.1-0.2,0.2-0.2c0,0,0.1,0.1,0.4,0.2c0.2,0.1,0.5,0.2,0.9,0.4
				c0.4,0.1,0.9,0.3,1.5,0.4c0.6,0.1,1.3,0.2,2.2,0.2c0.9,0,1.8-0.1,2.7-0.4s1.7-0.6,2.4-1.1s1.3-1.1,1.7-1.8
				c0.4-0.7,0.7-1.5,0.7-2.5c0-0.8-0.2-1.5-0.6-2.1c-0.4-0.6-0.9-1-1.5-1.3c-0.6-0.3-1.3-0.6-2.1-0.7c-0.8-0.1-1.5-0.2-2.2-0.2
				c-1.2,0-2.4,0.2-3.6,0.6c-1.2,0.4-2.3,1-3.2,1.7c-1,0.7-1.7,1.6-2.3,2.6c-0.6,1-0.9,2.1-0.9,3.3c0,1,0.3,1.9,0.9,2.6
				c0.6,0.7,1.3,1.3,2.2,1.8c0.9,0.5,1.8,0.8,2.9,1.1c1,0.2,2,0.3,2.8,0.3c2.4,0,4.4-0.4,6-1.2c1.6-0.8,3-1.8,4.2-3.1
				c1.2-1.3,2.2-2.8,3-4.5c0.9-1.7,1.7-3.4,2.6-5.2c-0.4,0-0.7,0.1-1.1,0.1c-0.3,0-0.7,0.1-1.1,0.1c-1.1,0-2.2-0.1-3.3-0.4
				c-1.1-0.3-2.1-0.7-2.9-1.2c-0.9-0.5-1.6-1.2-2.1-2c-0.6-0.8-0.8-1.7-0.8-2.7c0-1,0.2-1.9,0.7-2.7s1.1-1.5,1.8-2s1.7-1,2.7-1.3
				c1-0.3,2.1-0.5,3.2-0.5c1.8,0,3.5,0.4,5.1,1.2c1.6,0.8,2.9,1.8,4,3.1c0.3-0.3,0.7-0.7,1.2-1.1c0.5-0.4,1-0.7,1.5-1
				c0.5-0.3,1.1-0.6,1.6-0.8c0.6-0.2,1.1-0.3,1.6-0.3c0.7,0,1.2,0.2,1.5,0.5c0.3,0.3,0.5,0.7,0.5,1.3c0,1-0.4,2-1.1,3
				c-0.7,1-1.7,2-2.8,2.8c-1.1,0.9-2.4,1.6-3.7,2.2c-1.4,0.6-2.6,1-3.8,1.3c-0.6,1.4-1.3,2.8-2,4.2c-0.7,1.4-1.4,2.6-2.3,3.8
				c-0.9,1.2-1.9,2.2-3.1,3.2c-1.2,1-2.6,1.8-4.2,2.4c-1,0.4-2.1,0.7-3.3,0.9c-1.2,0.2-2.3,0.3-3.4,0.3c-1.2,0-2.3-0.1-3.5-0.4
				c-1.2-0.3-2.3-0.7-3.2-1.3c-1-0.6-1.8-1.3-2.4-2.2C0.9,34.4,0.6,33.3,0.6,32z M15.9,18.2c0,0.9,0.3,1.7,0.9,2.5s1.3,1.4,2.2,1.9
				c0.9,0.5,1.9,0.9,2.9,1.2s2,0.4,3,0.4c0.4,0,0.7,0,1,0c0.3,0,0.6,0,0.8-0.1c0.7-1.3,1.5-2.6,2.4-3.8s1.9-2.4,3-3.5
				c-0.5-0.6-1.1-1.2-1.8-1.7c-0.7-0.5-1.4-0.9-2.1-1.3c-0.7-0.3-1.5-0.6-2.3-0.8c-0.8-0.2-1.6-0.3-2.4-0.3c-1,0-2,0.1-2.9,0.4
				c-0.9,0.2-1.7,0.6-2.4,1.1c-0.7,0.5-1.2,1-1.6,1.7S15.9,17.3,15.9,18.2z M39.9,15.1c0-0.4-0.1-0.7-0.4-1
				c-0.2-0.2-0.6-0.4-1.1-0.4s-1,0.1-1.5,0.3c-0.5,0.2-1,0.5-1.5,0.9c-0.5,0.4-1,0.7-1.4,1.2c-0.4,0.4-0.8,0.8-1,1.1
				c0.1,0.1,0.2,0.3,0.3,0.5c0.2,0.2,0.3,0.5,0.5,0.7c0.2,0.2,0.3,0.5,0.4,0.7s0.2,0.3,0.2,0.3c0,0.1-0.1,0.1-0.2,0.1
				c-0.1,0-0.2-0.2-0.5-0.7c-0.3-0.5-0.6-0.9-1-1.4c-0.8,0.9-1.5,1.9-2,3c-0.5,1-1.1,2.1-1.6,3.1c1.1-0.1,2.3-0.5,3.6-1.1
				c1.3-0.6,2.4-1.2,3.5-2c1.1-0.8,1.9-1.7,2.6-2.6C39.6,17,39.9,16.1,39.9,15.1z"/>
		</g>
		<g class="st1">
			<path class="st2" d="M37.9,31.4c0,0.4-0.1,0.8-0.2,1.2c-0.1,0.4-0.3,0.8-0.5,1.3c-0.2,0.4-0.5,0.8-0.7,1.2
				c-0.3,0.4-0.5,0.7-0.8,1c0.1,0,0.2,0.1,0.4,0.1c0.7,0,1.3-0.2,1.9-0.5c0.6-0.3,1.2-0.8,1.7-1.3c0.3-0.3,0.4-0.4,0.5-0.5
				c0.1-0.1,0.1-0.1,0.2-0.1c0.1,0,0.2,0.1,0.2,0.2c0,0-0.1,0.1-0.2,0.3c-0.1,0.1-0.4,0.4-0.8,0.8c-0.5,0.5-1.1,0.9-1.7,1.2
				c-0.7,0.3-1.4,0.4-2.1,0.4c-0.3,0-0.4,0-0.5,0c-0.6,0.6-1.3,1.2-2.1,1.8c-0.8,0.6-1.8,0.8-2.8,0.8c-0.8,0-1.4-0.3-1.8-0.9
				s-0.6-1.4-0.6-2.4c0-0.7,0-1.1,0.1-1.4c0.1-0.2,0.1-0.4,0.1-0.6c0-0.1,0-0.2-0.1-0.2c-0.2,0-0.3,0.1-0.4,0.3
				c-0.1,0.2-0.2,0.3-0.3,0.3c-0.2,0-0.2-0.1-0.2-0.2c0,0,0.1-0.2,0.2-0.3c0.1-0.2,0.3-0.4,0.6-0.6c0.2-0.2,0.5-0.5,0.7-0.7
				c0.3-0.2,0.5-0.5,0.7-0.7c1.1-1,2.3-1.8,3.4-2.2c1.1-0.5,2.1-0.7,3-0.7c0.7,0,1.3,0.2,1.7,0.7S37.9,30.6,37.9,31.4z M37.1,30.9
				c0-0.4-0.1-0.8-0.3-1.2c-0.2-0.3-0.6-0.5-1-0.5c-0.7,0-1.4,0.3-2.1,0.8c-0.7,0.5-1.4,1.2-2.1,2c-0.6,0.8-1.1,1.7-1.5,2.6
				c-0.4,0.9-0.6,1.8-0.6,2.5c0,0.5,0.1,0.9,0.3,1.1s0.4,0.3,0.7,0.3c0.8,0,1.6-0.2,2.3-0.7c0.8-0.5,1.5-1.1,2.1-1.9
				c0.6-0.7,1.2-1.6,1.6-2.5C36.9,32.6,37.1,31.7,37.1,30.9z"/>
			<path class="st2" d="M40.7,39.1c0.1-0.2,0.4-0.6,0.7-1.1c0.3-0.5,0.8-1.1,1.2-1.7c0.5-0.6,0.9-1.3,1.5-2c0.5-0.7,1-1.3,1.4-1.9
				s0.8-1.1,1-1.6c0.3-0.5,0.4-0.8,0.4-1c0-0.2-0.1-0.3-0.2-0.4c-0.1-0.1-0.3-0.1-0.4-0.1c-0.5,0-1.1,0.2-1.7,0.6
				c-0.6,0.4-1.4,1.2-2.4,2.2c-0.5,0.5-0.8,0.8-1.1,1.1c-0.2,0.3-0.4,0.5-0.5,0.6c-0.1,0.1-0.2,0.2-0.2,0.3c0,0-0.1,0.1-0.1,0.1
				c-0.1,0-0.2-0.1-0.2-0.2c0,0,0.1-0.1,0.2-0.2c0.1-0.1,0.2-0.3,0.4-0.4c0.2-0.2,0.3-0.3,0.5-0.5c0.2-0.2,0.3-0.4,0.4-0.5
				c0.9-1,1.8-1.9,2.6-2.5c0.8-0.6,1.6-0.9,2.3-0.9c0.5,0,0.9,0.2,1.1,0.5c0.2,0.3,0.3,0.8,0.3,1.3c0,0.4-0.1,0.8-0.3,1.2
				s-0.4,0.9-0.6,1.3c-0.2,0.4-0.5,0.8-0.8,1.2c-0.3,0.4-0.5,0.7-0.7,1l0.1,0.1c0.4-0.3,0.9-0.9,1.6-1.6c0.7-0.7,1.4-1.5,2.2-2.2
				c0.8-0.7,1.5-1.4,2.3-1.9c0.7-0.6,1.4-0.8,1.9-0.8s0.8,0.2,1.1,0.6c0.2,0.4,0.3,0.8,0.3,1.2c0,0.6-0.2,1.2-0.5,1.8
				c-0.3,0.5-0.6,1-1,1.4c-1.7,2.2-2.6,3.6-2.6,4.2c0,0.2,0.1,0.4,0.2,0.5c0.1,0.1,0.3,0.2,0.5,0.2c0.4,0,1-0.3,1.8-0.9
				s1.5-1.3,2.3-2.1c0.5-0.5,0.9-0.9,1.1-1.2c0.3-0.3,0.4-0.5,0.6-0.6s0.2-0.2,0.2-0.3c0,0,0.1-0.1,0.1-0.1c0.1,0,0.2,0.1,0.2,0.2
				c0,0-0.1,0.2-0.3,0.4c-0.2,0.2-0.4,0.5-0.7,0.8c-0.3,0.3-0.5,0.6-0.8,0.8c-0.3,0.3-0.5,0.5-0.6,0.6c-0.9,0.8-1.6,1.5-2.3,1.9
				c-0.7,0.5-1.2,0.7-1.7,0.7c-0.6,0-1-0.2-1.3-0.7c-0.3-0.5-0.4-1-0.4-1.7c0-0.7,0.2-1.5,0.7-2.2c0.4-0.7,0.9-1.4,1.4-2
				s1-1.2,1.4-1.7c0.4-0.5,0.7-0.9,0.7-1.1c0-0.3-0.2-0.4-0.5-0.4c-0.3,0-0.7,0.2-1.3,0.6c-0.6,0.4-1.2,0.9-1.9,1.5s-1.4,1.3-2.1,2
				c-0.7,0.8-1.4,1.5-2.1,2.2c-0.6,0.7-1.2,1.4-1.7,1.9c-0.5,0.6-0.8,1-1,1.3L40.7,39.1z"/>
			<path class="st2" d="M72,29l-6.5,10.2l0.1,0.1c0.5-0.2,1.1-0.5,1.7-0.9c0.6-0.4,1.1-0.8,1.7-1.2c0.5-0.4,1.1-0.9,1.6-1.4
				c0.5-0.5,1-1,1.4-1.4c0.3-0.3,0.5-0.6,0.6-0.7c0.1-0.1,0.2-0.1,0.2-0.1c0.1,0,0.2,0.1,0.2,0.2c0,0.1-0.1,0.2-0.3,0.4
				c-0.2,0.2-0.6,0.6-1.1,1.2c-1,1.1-2.1,2.1-3.3,2.9C67,39,66,39.6,65.2,39.8c-0.2,0.5-0.6,1.1-1,1.8c-0.4,0.7-0.9,1.5-1.5,2.3
				c-0.6,0.8-1.2,1.6-1.8,2.4c-0.7,0.8-1.3,1.5-2,2.1c-0.7,0.6-1.3,1.2-2,1.6c-0.7,0.4-1.3,0.6-1.9,0.6c-0.6,0-1-0.2-1.4-0.5
				c-0.4-0.3-0.5-0.8-0.5-1.4c0-0.7,0.2-1.4,0.7-2.1c0.5-0.7,1.1-1.3,2-2c0.9-0.7,1.9-1.4,3.2-2.1c1.3-0.7,2.7-1.5,4.3-2.4
				c0.3-0.6,0.6-1.3,1-2.1c0.4-0.8,1-1.8,1.7-3.2L66,34.7c-0.3,0.4-0.6,0.8-1.1,1.3c-0.4,0.5-0.9,1-1.5,1.4
				c-0.5,0.5-1.1,0.8-1.6,1.2c-0.6,0.3-1.1,0.5-1.7,0.5c-0.9,0-1.5-0.3-1.9-0.9s-0.5-1.4-0.5-2.3c0-0.5,0-0.8,0.1-1.1
				s0.1-0.5,0.1-0.8c0-0.1-0.1-0.1-0.2-0.1c-0.1,0-0.2,0-0.3,0.1c-0.1,0.1-0.1,0.1-0.2,0.1c-0.1,0-0.2-0.1-0.2-0.2
				c0,0,0.1-0.2,0.2-0.3c0.1-0.2,0.5-0.5,1-1.1c0.4-0.4,1-0.9,1.6-1.3c0.6-0.4,1.2-0.8,1.9-1.2c0.7-0.3,1.3-0.6,2-0.8
				c0.7-0.2,1.3-0.3,1.9-0.3c0.6,0,1.1,0.1,1.5,0.4c0.4,0.3,0.5,0.7,0.5,1.4c0,0.5-0.1,1-0.2,1.3l0.1,0.1c0.3-0.4,0.5-0.8,0.8-1.3
				c0.3-0.5,0.6-1,0.8-1.5L72,29z M54.1,48.7c0,0.4,0.1,0.8,0.2,1c0.1,0.3,0.4,0.4,0.9,0.4c0.5,0,1-0.2,1.5-0.6
				c0.5-0.4,1.1-0.8,1.6-1.4s1.1-1.2,1.6-2c0.5-0.7,1-1.4,1.4-2.1c0.4-0.7,0.8-1.4,1.1-2c0.3-0.6,0.5-1.1,0.6-1.5
				c-0.6,0.4-1.5,0.8-2.5,1.4c-1,0.6-2,1.2-2.9,1.9c-1,0.7-1.8,1.5-2.5,2.3C54.5,47,54.1,47.9,54.1,48.7z M66.3,29.2
				c-0.8,0-1.6,0.3-2.4,0.9s-1.6,1.3-2.3,2.2c-0.7,0.9-1.3,1.8-1.7,2.7c-0.5,0.9-0.7,1.8-0.7,2.5c0,0.3,0.1,0.6,0.3,0.8
				c0.2,0.2,0.4,0.3,0.8,0.3c0.5,0,1-0.2,1.5-0.5c0.6-0.3,1.1-0.7,1.6-1.2s1.1-1,1.5-1.6s0.9-1.2,1.3-1.8c0.4-0.6,0.7-1.1,0.9-1.7
				s0.3-1,0.3-1.3c0-0.4-0.1-0.8-0.2-1C67.1,29.4,66.8,29.2,66.3,29.2z"/>
		</g>
		<g class="st1">
			<path class="st0" d="M101.3,25.6c0.7,0.1,1.4,0.4,2,0.7c0.6,0.3,1.2,0.7,1.7,1.2c0.5,0.5,0.9,1,1.1,1.6c0.3,0.6,0.4,1.3,0.4,2
				c0,1.1-0.3,2.1-0.9,3.1c-0.6,1-1.3,1.8-2.3,2.6c-0.9,0.7-1.9,1.3-3.1,1.8c-1.1,0.4-2.2,0.6-3.3,0.6c-0.6,0-1.2-0.1-1.7-0.3
				s-1-0.4-1.4-0.7c-0.4-0.3-0.7-0.7-1-1.1s-0.4-0.9-0.4-1.5c0-0.9,0.2-1.6,0.7-2.3c0.5-0.7,0.9-1.3,1.4-1.7
				c0.2-0.2,0.4-0.4,0.6-0.6c0.2-0.2,0.5-0.4,0.7-0.5c0.2-0.2,0.4-0.3,0.5-0.4c0.2-0.1,0.2-0.1,0.3-0.1c0.1,0,0.2,0.1,0.2,0.2
				c0,0.1-0.2,0.2-0.5,0.4c-0.3,0.2-0.8,0.6-1.4,1.1c-0.6,0.5-1.1,1.2-1.5,1.8c-0.4,0.7-0.6,1.3-0.6,1.9c0,1,0.4,1.8,1.1,2.4
				s1.6,0.9,2.7,0.9c1.1,0,2.1-0.3,3-0.8s1.7-1.2,2.3-2c0.7-0.8,1.2-1.7,1.5-2.7c0.4-1,0.5-1.9,0.5-2.9c0-0.8-0.1-1.5-0.3-2.1
				c-0.2-0.6-0.5-1-0.8-1.4s-0.7-0.6-1-0.8c-0.4-0.1-0.8-0.2-1.2-0.2c-0.3,0-0.5,0-0.7,0.1c-0.2,0-0.3,0.1-0.5,0.1
				c-0.2,0-0.4,0.1-0.6,0.1c-0.2,0-0.5,0.1-0.9,0.1c-0.5,0-0.7-0.2-0.7-0.5c0-0.2,0.1-0.3,0.3-0.4c0.2-0.1,0.6-0.1,1.2-0.1
				c0.4,0,0.7,0,0.9,0c0.2,0,0.4,0,0.5,0c0.8,0,1.5-0.2,2.1-0.6c0.6-0.4,1.2-0.9,1.6-1.6s0.8-1.3,1-2s0.4-1.4,0.4-2.1
				c0-0.9-0.1-1.7-0.4-2.3c-0.3-0.6-0.8-1.1-1.4-1.5c-1.2,0.8-2.2,1.7-3.2,2.8s-1.8,2.3-2.6,3.6c-0.8,1.3-1.5,2.5-2.2,3.8
				c-0.7,1.3-1.4,2.5-2.1,3.6c-0.8,1.2-1.7,2.4-2.7,3.6c-1,1.2-2.2,2.3-3.4,3.3c-1.2,1-2.6,1.8-4,2.4c-1.4,0.6-3,0.9-4.6,0.9
				c-0.7,0-1.3-0.1-1.9-0.2c-0.6-0.2-1.1-0.4-1.5-0.7s-0.8-0.6-1-1c-0.2-0.4-0.3-0.8-0.3-1.2c0-0.4,0.2-0.8,0.5-1.1
				c0.3-0.3,0.7-0.4,1.1-0.4c1,0,1.4,0.4,1.4,1.3c0,0.2-0.1,0.5-0.2,0.7c-0.1,0.2-0.2,0.4-0.2,0.6c0,0.4,0.2,0.8,0.5,1.1
				c0.3,0.3,0.9,0.5,1.7,0.5c1,0,2.1-0.2,3.1-0.5c1-0.3,2-0.9,3-1.7s2-1.8,3-3.2c1-1.3,2.1-3,3.2-5c0.9-1.6,1.7-3,2.5-4.3
				s1.7-2.5,2.7-3.6c0.9-1.1,2-2.1,3-3.1c1.1-0.9,2.3-1.8,3.6-2.6c-1.1-0.5-2.3-0.8-3.6-1c-1.3-0.2-2.5-0.3-3.8-0.3
				c-1.4,0-2.9,0.2-4.5,0.5c0.6,0.5,1,1.2,1.3,2c0.3,0.8,0.4,1.6,0.4,2.4c0,1.3-0.3,2.7-0.9,4.1c-0.6,1.4-1.5,2.6-2.5,3.7
				c-1.1,1.1-2.3,2-3.7,2.7c-1.4,0.7-2.9,1.1-4.4,1.1c-1.2,0-2.1-0.3-3-1c-0.8-0.7-1.2-1.6-1.2-2.9c0-1.4,0.4-2.8,1.3-4.1
				s1.9-2.5,3.2-3.6c1.3-1.1,2.7-2,4.2-2.8s3-1.3,4.4-1.6c-0.6-0.5-1.3-0.8-2.1-1c-0.7-0.2-1.5-0.3-2.3-0.3c-1,0-2,0.1-3,0.4
				c-0.9,0.3-1.8,0.7-2.6,1.1s-1.5,1-2.2,1.5c-0.6,0.6-1.2,1.1-1.6,1.7c-0.6,0.8-1,1.5-1.3,2c-0.3,0.5-0.5,0.9-0.6,1.3
				c-0.1,0.3-0.2,0.5-0.2,0.6c0,0.1-0.1,0.2-0.2,0.2c-0.1,0-0.2-0.1-0.2-0.2c0-0.1,0.2-0.5,0.5-1.3c0.3-0.7,0.9-1.7,1.7-2.7
				c0.5-0.7,1.1-1.3,1.8-2s1.5-1.2,2.3-1.6c0.8-0.5,1.7-0.8,2.7-1.1c1-0.3,1.9-0.4,2.9-0.4c0.9,0,1.7,0.1,2.6,0.4
				c0.8,0.3,1.6,0.7,2.3,1.2c0.9-0.2,1.7-0.3,2.5-0.5c0.8-0.1,1.7-0.2,2.5-0.2c2.7,0,5.3,0.5,7.8,1.4c0.4-0.2,0.9-0.5,1.4-0.7
				c0.5-0.2,0.9-0.4,1.3-0.4c0.1,0,0.2,0,0.2,0.1c0,0-0.1,0.1-0.2,0.1s-0.3,0.1-0.4,0.1c-0.2,0.1-0.4,0.2-0.7,0.3
				c-0.3,0.1-0.6,0.3-1,0.6c1.1,0.5,1.9,1.2,2.6,2s1,1.8,1,2.9c0,0.8-0.2,1.5-0.6,2.1c-0.4,0.6-0.9,1.2-1.5,1.7
				c-0.6,0.5-1.3,0.9-2.1,1.2C102.7,25.1,102,25.4,101.3,25.6L101.3,25.6z M77.7,26.2c0,1,0.3,1.8,0.9,2.4s1.5,0.9,2.7,0.9
				c1.3,0,2.5-0.4,3.8-1.2s2.4-1.8,3.4-2.9c1-1.2,1.8-2.4,2.4-3.7c0.6-1.3,0.9-2.5,0.9-3.6c0-0.9-0.1-1.6-0.3-2.2
				c-0.2-0.6-0.5-1.1-0.8-1.4c-1.3,0.3-2.7,0.8-4.2,1.5c-1.5,0.7-2.9,1.5-4.2,2.6c-1.3,1-2.4,2.2-3.2,3.5
				C78.2,23.2,77.7,24.7,77.7,26.2z"/>
		</g>
		<g class="st1">
			<path class="st2" d="M109.9,39.1c-0.6,0-1.1-0.2-1.4-0.5c-0.3-0.4-0.5-0.8-0.5-1.4c0-0.6,0.1-1.2,0.4-1.8
				c0.3-0.6,0.6-1.2,0.9-1.8c0.4-0.6,0.8-1.2,1.2-1.7c0.4-0.5,0.8-1,1.1-1.5l-0.1-0.1c-0.2,0.2-0.6,0.6-1.1,1.1
				c-0.5,0.5-1.2,1.3-2.2,2.3c-0.2,0.2-0.3,0.4-0.4,0.4c-0.1,0-0.1,0.1-0.2,0.1c-0.1,0-0.2-0.1-0.2-0.2c0,0,0.1-0.1,0.2-0.3
				s0.5-0.5,1-1.1c0.3-0.3,0.5-0.6,0.9-0.9s0.6-0.7,0.9-1c0.3-0.3,0.6-0.6,0.9-0.9c0.3-0.3,0.5-0.5,0.6-0.7l2.4-0.1
				c-1.2,1.8-2.1,3.3-2.8,4.4c-0.7,1.1-1.3,2-1.6,2.6s-0.6,1.1-0.8,1.4c-0.1,0.3-0.2,0.5-0.2,0.7c0,0.3,0.1,0.5,0.2,0.6
				c0.2,0.1,0.3,0.1,0.5,0.1c0.3,0,0.6-0.1,1-0.3c0.4-0.2,0.7-0.4,1.1-0.6c0.4-0.3,0.8-0.5,1.1-0.9s0.7-0.6,1-1
				c0.3-0.2,0.5-0.5,0.8-0.8c0.3-0.3,0.5-0.5,0.7-0.8c0.2-0.2,0.4-0.4,0.6-0.6c0.2-0.2,0.2-0.2,0.3-0.2c0.2,0,0.2,0.1,0.2,0.2
				c0,0-0.2,0.3-0.6,0.7c-0.4,0.4-1,1.1-1.8,1.9C112.6,38.1,111.1,39.1,109.9,39.1z M116,23c0-0.3,0.1-0.6,0.3-0.9s0.6-0.5,1-0.5
				c0.3,0,0.5,0.1,0.7,0.3s0.2,0.4,0.2,0.7c0,0.3-0.1,0.6-0.3,0.9c-0.2,0.3-0.6,0.5-1,0.5c-0.3,0-0.5-0.1-0.7-0.3
				C116,23.5,116,23.3,116,23z"/>
			<path class="st2" d="M116.4,34.1c-0.1,0-0.2-0.1-0.2-0.2c0,0,0.1-0.2,0.2-0.3s0.3-0.4,0.6-0.6c0.2-0.2,0.5-0.5,0.8-0.8
				s0.5-0.5,0.8-0.8c0.8-0.9,1.6-1.5,2.2-1.9s1.2-0.6,1.8-0.6c0.5,0,0.9,0.2,1.1,0.5c0.3,0.4,0.4,0.8,0.4,1.2c0,0.4-0.1,0.8-0.3,1.3
				s-0.4,0.9-0.7,1.4c-0.3,0.5-0.5,0.9-0.8,1.3c-0.3,0.4-0.5,0.8-0.7,1l0.1,0.1c1-1.1,2-2,2.8-2.7c0.8-0.7,1.3-1.3,1.5-1.8
				c0.2-0.5,0.5-1.1,0.9-1.5c0.4-0.5,1-0.7,1.6-0.7c0.6,0,0.9,0.2,0.9,0.6c0,0.4-0.2,0.7-0.7,1.1c-0.5,0.3-0.9,0.7-1.5,1.1
				c-0.5,0.4-1,0.8-1.5,1.3c-0.5,0.5-0.7,1-0.7,1.7c0,0.4,0.1,0.7,0.4,0.9c0.2,0.2,0.5,0.3,0.9,0.3c0.6,0,1.2-0.2,1.7-0.7
				c0.4-0.4,0.7-0.8,0.9-1c0.2-0.3,0.3-0.4,0.4-0.4c0.2,0,0.2,0.1,0.2,0.2c0,0-0.1,0.2-0.3,0.5s-0.4,0.5-0.6,0.7
				c-0.4,0.4-0.8,0.7-1.2,0.9c-0.4,0.2-0.8,0.3-1.2,0.3c-0.4,0-0.8-0.1-1.2-0.4c-0.3-0.3-0.5-0.6-0.5-1.1c0-0.4,0.1-0.8,0.2-1.1
				s0.3-0.6,0.6-0.9l-0.1-0.1c-1,0.9-2,1.9-2.9,2.9c-1,1.1-1.9,2.2-2.9,3.4l-2.4,0.2c1-1.5,1.8-2.8,2.6-3.9s1.4-2,1.9-2.7
				c0.5-0.7,0.9-1.3,1.1-1.7c0.3-0.4,0.4-0.8,0.4-1c0-0.3-0.2-0.5-0.7-0.5c-0.3,0-0.7,0.1-1.1,0.4c-0.5,0.3-1.1,0.8-1.9,1.5
				c-0.6,0.6-1.1,1.1-1.4,1.5c-0.4,0.4-0.6,0.7-0.8,0.9c-0.2,0.2-0.3,0.4-0.4,0.5C116.5,34.1,116.5,34.1,116.4,34.1z"/>
			<path class="st2" d="M147.8,16.9l2.3-0.1c-1.5,2.6-3,5.1-4.5,7.4c-1.5,2.4-2.8,4.5-4,6.4c-1.2,1.9-2.1,3.5-2.8,4.8
				c-0.7,1.3-1.1,2.1-1.1,2.5c0,0.5,0.2,0.7,0.7,0.7c0.3,0,0.7-0.2,1.2-0.5s1.2-0.9,2-1.7c1-1,1.7-1.7,2.1-2.2
				c0.4-0.5,0.6-0.7,0.7-0.7c0.2,0,0.2,0,0.2,0.1c0,0.1-0.3,0.4-0.8,1c-1.4,1.5-2.5,2.6-3.4,3.3c-0.9,0.7-1.7,1-2.4,1
				c-0.4,0-0.8-0.2-1-0.6c-0.3-0.4-0.4-0.8-0.4-1.4c0-0.3,0-0.6,0.1-0.8c0.1-0.3,0.1-0.5,0.2-0.7l-0.1-0.1c-0.2,0.3-0.5,0.7-0.9,1.1
				c-0.4,0.4-0.8,0.8-1.3,1.2c-0.5,0.4-1,0.7-1.5,0.9c-0.5,0.2-1,0.4-1.5,0.4c-0.4,0-0.7-0.1-1-0.3s-0.5-0.5-0.7-0.8
				c-0.2-0.3-0.3-0.7-0.4-1.1c-0.1-0.4-0.1-0.8-0.1-1.2c0-0.3,0-0.6,0-0.9c0-0.3,0.1-0.6,0.1-0.9c-0.1,0-0.1,0-0.1,0.1
				c0,0.1-0.1,0.1-0.1,0.1c-0.1,0-0.2-0.1-0.2-0.2c0-0.1,0.1-0.2,0.2-0.3c0.1-0.1,0.2-0.2,0.3-0.4c0.2-0.2,0.4-0.4,0.7-0.7
				c1.1-1.1,2.2-2,3.4-2.8s2.5-1.1,3.8-1.1c0.5,0,0.9,0.1,1.3,0.4s0.5,0.7,0.5,1.3c0,0.2,0,0.3,0,0.5c0,0.2,0,0.3-0.1,0.4l0.1,0.1
				L147.8,16.9z M138.9,30.4c0-0.4-0.1-0.8-0.2-1c-0.2-0.3-0.5-0.4-0.9-0.4c-0.6,0-1.4,0.3-2.1,0.8c-0.8,0.6-1.5,1.3-2.2,2.1
				c-0.7,0.8-1.3,1.8-1.7,2.8s-0.7,2-0.7,2.9c0,0.7,0.3,1,1,1c0.5,0,1.1-0.3,1.9-0.8c0.8-0.5,1.5-1.2,2.3-2c0.7-0.8,1.4-1.7,1.9-2.7
				C138.7,32.1,138.9,31.2,138.9,30.4z"/>
		</g>
	</g>
</g>
</svg>
